<svg width="14" height="12" viewBox="0 0 14 12" fill="none" xmlns="http://www.w3.org/2000/svg">
<path d="M11.25 0H1.7932C0.804453 0 0 0.804294 0 1.7932V7.58056C0 8.56724 0.80095 9.37026 1.78683 9.37377V12L5.56103 9.37377H11.25C12.2387 9.37377 13.0432 8.56931 13.0432 7.58056V1.7932C13.0432 0.804294 12.2387 0 11.25 0ZM12.279 7.58056C12.279 8.14786 11.8174 8.60952 11.25 8.60952H5.32125L2.55108 10.5372V8.60952H1.7932C1.22583 8.60952 0.76425 8.14786 0.76425 7.58056V1.7932C0.76425 1.22575 1.22583 0.76425 1.7932 0.76425H11.25C11.8174 0.76425 12.279 1.22575 12.279 1.7932V7.58056Z" fill="#000106"/>
<path d="M3.49219 2.70027H9.55349V3.46452H3.49219V2.70027Z" fill="#000106"/>
<path d="M3.49219 4.33098H9.55349V5.09523H3.49219V4.33098Z" fill="#000106"/>
<path d="M3.49219 5.96124H9.55349V6.72548H3.49219V5.96124Z" fill="#000106"/>
</svg>
