<svg width="10" height="11" viewBox="0 0 10 11" fill="none" xmlns="http://www.w3.org/2000/svg">
<path d="M0.244579 6.61C0.442055 6.87215 0.732115 7.04346 1.06133 7.09231C1.12699 7.10206 1.19414 7.10654 1.2603 7.10607H3.32864V8.42751C3.32864 9.3331 4.08216 10.0698 5.00835 10.0698C5.15875 10.0698 5.29506 9.98323 5.35614 9.84884L7.0883 6.03828C7.10992 5.99069 7.12109 5.93921 7.12109 5.88714V1.22976C7.12109 1.02423 6.95069 0.857635 6.7405 0.857635H1.8579C1.85394 0.857599 1.85 0.857582 1.84607 0.857582C1.55038 0.857582 1.26415 0.960338 1.03864 1.14777C0.809533 1.33815 0.658524 1.60309 0.613548 1.89315L0.0158753 5.70426C-0.0341053 6.02615 0.0471215 6.34783 0.244579 6.61Z" fill="#000106"/>
<path d="M6.73935 2.06526H7.37564C7.64332 2.06526 7.86111 2.27821 7.86111 2.53993V4.30852C7.86111 4.57025 7.64332 4.78318 7.37564 4.78318H6.73935C6.52916 4.78318 6.35875 5.68213 6.35875 5.88764C6.35875 6.09315 6.52916 6.25977 6.73935 6.25977H8.03847C8.72589 6.25977 9.28516 5.71295 9.28516 5.04083V2.07707C9.28516 1.40495 8.72589 0.858136 8.03847 0.858136H6.73935C6.52914 0.858136 6.35875 1.02473 6.35875 1.23026C6.35875 1.43583 6.52916 2.06526 6.73935 2.06526Z" fill="#000106"/>
</svg>
