<svg width="19" height="19" viewBox="0 0 19 19" fill="none" xmlns="http://www.w3.org/2000/svg">
<g clip-path="url(#clip0)">
<path d="M8.3672 0C3.75365 0 0 3.75365 0 8.3672C0 12.981 3.75365 16.7344 8.3672 16.7344C12.981 16.7344 16.7344 12.981 16.7344 8.3672C16.7344 3.75365 12.981 0 8.3672 0ZM8.3672 15.1897C4.60531 15.1897 1.54471 12.1291 1.54471 8.36724C1.54471 4.60535 4.60531 1.54471 8.3672 1.54471C12.1291 1.54471 15.1897 4.60531 15.1897 8.3672C15.1897 12.1291 12.1291 15.1897 8.3672 15.1897Z" fill="#1F1F1F"/>
<path fill-rule="evenodd" clip-rule="evenodd" d="M-0.25 8.3672C-0.25 3.61558 3.61558 -0.25 8.3672 -0.25C13.1191 -0.25 16.9844 3.61558 16.9844 8.3672C16.9844 13.1191 13.1191 16.9844 8.3672 16.9844C3.61558 16.9844 -0.25 13.1191 -0.25 8.3672ZM8.3672 0.25C3.89172 0.25 0.25 3.89172 0.25 8.3672C0.25 12.8429 3.89172 16.4844 8.3672 16.4844C12.8429 16.4844 16.4844 12.8429 16.4844 8.3672C16.4844 3.89172 12.8429 0.25 8.3672 0.25ZM8.3672 1.79471C4.74338 1.79471 1.79471 4.74342 1.79471 8.36724C1.79471 11.9911 4.74338 14.9397 8.3672 14.9397C11.991 14.9397 14.9397 11.991 14.9397 8.3672C14.9397 4.74338 11.991 1.79471 8.3672 1.79471ZM1.29471 8.36724C1.29471 4.46728 4.46724 1.29471 8.3672 1.29471C12.2672 1.29471 15.4397 4.46724 15.4397 8.3672C15.4397 12.2672 12.2672 15.4397 8.3672 15.4397C4.46724 15.4397 1.29471 12.2672 1.29471 8.36724Z" fill="white"/>
<path d="M18.774 17.6816L14.3458 13.2534C14.044 12.9517 13.5554 12.9517 13.2536 13.2534C12.9519 13.5549 12.9519 14.0441 13.2536 14.3455L17.6818 18.7737C17.8327 18.9246 18.0302 19 18.2279 19C18.4254 19 18.6231 18.9246 18.774 18.7737C19.0757 18.4722 19.0757 17.9831 18.774 17.6816Z" fill="#1F1F1F"/>
<path fill-rule="evenodd" clip-rule="evenodd" d="M13.0769 13.0765C13.4763 12.6773 14.1232 12.6773 14.5225 13.0766L18.9506 17.5047C18.9507 17.5048 18.9506 17.5047 18.9506 17.5047C19.35 17.9039 19.3501 18.5514 18.9507 18.9505M13.0769 13.0765C12.6775 13.4757 12.6775 14.1232 13.0768 14.5223C13.0768 14.5223 13.0769 14.5223 13.0768 14.5223L17.505 18.9505C17.7046 19.1501 17.9665 19.25 18.2279 19.25C18.489 19.25 18.7511 19.15 18.9507 18.9505M14.169 13.4302C13.9649 13.2261 13.6345 13.2261 13.4304 13.4302C13.2264 13.634 13.2263 13.9648 13.4303 14.1687L17.8586 18.5969C17.9607 18.6991 18.0938 18.75 18.2279 18.75C18.3617 18.75 18.495 18.6991 18.5972 18.5969C18.8012 18.3931 18.8012 18.0623 18.5972 17.8584L14.169 13.4302Z" fill="white"/>
</g>
<defs>
<clipPath id="clip0">
<rect width="19" height="19" fill="white"/>
</clipPath>
</defs>
</svg>
