<svg width="23" height="18" viewBox="0 0 23 18" fill="none" xmlns="http://www.w3.org/2000/svg">
<path d="M18.2967 0.960938H4.84403C2.39481 0.960938 0.402344 2.95979 0.402344 5.4163V12.9153C0.402344 15.3723 2.39481 17.3707 4.84403 17.3707H18.2967C20.746 17.3707 22.7384 15.3718 22.7384 12.9153V5.4163C22.7384 2.95979 20.746 0.960938 18.2967 0.960938ZM21.8268 12.9158C21.8268 14.8699 20.2432 16.4594 18.2967 16.4594H4.84403C2.8976 16.4594 1.31402 14.8695 1.31402 12.9158V5.4163C1.31402 3.46258 2.8976 1.87261 4.84403 1.87261H18.2967C20.2432 1.87261 21.8268 3.46258 21.8268 5.4163V12.9158Z" fill="#000106"/>
<path d="M15.6091 9.00171L9.29346 5.30258C9.15306 5.22053 8.97847 5.21916 8.83671 5.3003C8.69494 5.38144 8.60742 5.53232 8.60742 5.69597V13.0938C8.60742 13.257 8.69494 13.4083 8.83625 13.4894C8.90645 13.5296 8.98486 13.5496 9.06326 13.5496C9.14303 13.5496 9.22235 13.5286 9.29346 13.4872L15.6091 9.78894C15.7486 9.70735 15.8347 9.55738 15.8347 9.39555C15.8347 9.23373 15.749 9.0833 15.6091 9.00171ZM9.5191 12.2983V6.49095L14.4768 9.3951L9.5191 12.2983Z" fill="#000106"/>
</svg>
