<svg width="19" height="20" viewBox="0 0 19 20" fill="none" xmlns="http://www.w3.org/2000/svg">
<path d="M13.9235 0.838867H5.32263C2.52338 0.838867 0.246094 3.11615 0.246094 5.9154V14.5165C0.246094 17.3156 2.52338 19.5928 5.32263 19.5928H13.9237C16.7228 19.5928 19.0001 17.3156 19.0001 14.5165V5.9154C19.0001 3.11615 16.7228 0.838867 13.9235 0.838867V0.838867ZM17.9006 14.5165C17.9006 16.7093 16.1165 18.4934 13.9235 18.4934H5.32263C3.12962 18.4934 1.34553 16.7093 1.34553 14.5165V5.9154C1.34553 3.72239 3.12962 1.93831 5.32263 1.93831H13.9237C16.1165 1.93831 17.9006 3.72239 17.9006 5.9154V14.5165Z" fill="#000106"/>
<path d="M9.62399 5.08789C6.79642 5.08789 4.49609 7.38821 4.49609 10.2158C4.49609 13.0434 6.79642 15.3437 9.62399 15.3437C12.4516 15.3437 14.7519 13.0434 14.7519 10.2158C14.7519 7.38821 12.4516 5.08789 9.62399 5.08789ZM9.62399 14.2442C7.4028 14.2442 5.59553 12.4371 5.59553 10.2158C5.59553 7.99459 7.4028 6.18733 9.62399 6.18733C11.8453 6.18733 13.6525 7.99459 13.6525 10.2158C13.6525 12.4371 11.8453 14.2442 9.62399 14.2442Z" fill="#000106"/>
<path d="M14.8727 3.2666C14.0371 3.2666 13.3574 3.94638 13.3574 4.78183C13.3574 5.61743 14.0371 6.29721 14.8727 6.29721C15.7083 6.29721 16.388 5.61743 16.388 4.78183C16.388 3.94624 15.7083 3.2666 14.8727 3.2666ZM14.8727 5.19763C14.6434 5.19763 14.4569 5.01105 14.4569 4.78183C14.4569 4.55248 14.6434 4.36604 14.8727 4.36604C15.102 4.36604 15.2886 4.55248 15.2886 4.78183C15.2886 5.01105 15.102 5.19763 14.8727 5.19763Z" fill="#000106"/>
</svg>
