<svg width="15" height="7" viewBox="0 0 15 7" fill="none" xmlns="http://www.w3.org/2000/svg">
<path d="M7.35538 6.75482L0.309624 1.49202C0.138629 1.36429 0.0500597 0.978484 0.111807 0.630325C0.173555 0.282166 0.362243 0.103456 0.533239 0.23118L7.57899 5.49399C7.75 5.62172 7.83856 6.00752 7.77681 6.35568C7.71506 6.70384 7.52639 6.88256 7.35538 6.75482Z" fill="#000106"/>
<path d="M7.64462 6.76874L14.6904 1.50593C14.8614 1.37821 14.9499 0.9924 14.8882 0.644241C14.8264 0.296082 14.6378 0.117372 14.4668 0.245096L7.42101 5.5079C7.25 5.63564 7.16144 6.02143 7.22319 6.36959C7.28494 6.71775 7.47361 6.89647 7.64462 6.76874Z" fill="#000106"/>
</svg>
