<svg width="28" height="28" viewBox="0 0 28 28" fill="none" xmlns="http://www.w3.org/2000/svg">
<circle cx="14" cy="14" r="14" fill="#ECF0F2"/>
<path d="M7.01961 11.5831L9.14915 18.6784C9.17729 18.7715 9.23381 18.8529 9.31045 18.9108C9.38708 18.9687 9.47981 18.9999 9.57506 19H18.4583C18.5535 18.9999 18.6462 18.9687 18.7229 18.9108C18.7995 18.8529 18.856 18.7715 18.8842 18.6784L20.9934 11.5831C21.0073 11.5004 20.9991 11.4155 20.9698 11.3371C20.9404 11.2588 20.891 11.19 20.8266 11.138C20.7623 11.086 20.6854 11.0527 20.6041 11.0415C20.5229 11.0304 20.4402 11.0419 20.3647 11.0748L17.2617 12.5789L17.1603 12.5167L14.3614 9.15577C14.3177 9.1067 14.2645 9.0675 14.2051 9.04068C14.1458 9.01385 14.0816 9 14.0167 9C13.9518 9 13.8876 9.01385 13.8282 9.04068C13.7688 9.0675 13.7156 9.1067 13.6719 9.15577L10.7717 12.5789L7.66861 11.0748C7.60891 11.0432 7.54311 11.0255 7.47594 11.023C7.375 11.0052 7.27116 11.0235 7.18186 11.0748C7.10717 11.1323 7.05156 11.2119 7.02254 11.3028C6.99352 11.3938 6.9925 11.4916 7.01961 11.5831Z" fill="#000106"/>
</svg>
