<svg width="177" height="40" viewBox="0 0 177 40" fill="none" xmlns="http://www.w3.org/2000/svg">
<rect y="5" width="29.8571" height="30" rx="14.9286" fill="#F79A38"/>
<path d="M19.5846 22.0946C19.9762 21.7011 20.0322 21.1389 19.6965 20.5767C19.4167 20.1269 18.9131 19.902 18.3536 20.0145C18.1298 20.0707 17.906 20.1831 17.6822 20.3518C15.9476 21.5324 13.5976 21.4762 11.8631 20.2956C11.7511 20.2393 11.6392 20.1831 11.5273 20.1269C10.9118 19.8458 10.2964 19.9582 9.96065 20.5204C9.56898 21.0827 9.62493 21.7011 10.1285 22.2071C10.2404 22.3195 10.3523 22.3757 10.4083 22.4882L10.4642 22.5444C11.2476 23.1628 12.1988 23.5564 13.4297 23.725L12.7023 24.4559C12.0869 25.0743 11.4154 25.749 10.7999 26.3674C10.6321 26.5361 10.4083 26.8172 10.4083 27.2107C10.4083 27.7167 10.688 28.2227 11.1916 28.4476C11.3595 28.56 11.5273 28.56 11.6952 28.56C11.975 28.56 12.3107 28.4476 12.5345 28.1665C13.3738 27.3232 14.0452 26.6485 14.7167 25.9739C14.7726 25.9176 14.7726 25.9176 14.7726 25.9176C14.7726 25.9176 14.8286 25.9176 14.8286 25.9739C15.2762 26.4798 15.7798 26.9296 16.2274 27.4356C16.4512 27.6605 16.675 27.8854 16.8988 28.1102C17.1786 28.3914 17.4024 28.5038 17.7381 28.5038C18.2417 28.56 18.8012 28.2227 19.025 27.7167C19.2489 27.2669 19.1369 26.7047 18.7453 26.3674C18.1857 25.8052 17.6262 25.1868 17.0107 24.6246L16.0595 23.6688C16.5631 23.6126 17.1226 23.5001 17.6262 23.2753C18.4655 22.9942 19.081 22.6006 19.5846 22.0946Z" fill="white"/>
<path d="M14.7726 20.5204C17.1786 20.5204 19.1369 18.6089 19.1369 16.1914C19.1369 15.0108 18.6893 13.8864 17.85 13.0431C17.0107 12.1998 15.9476 11.75 14.8286 11.75C12.4226 11.75 10.5202 13.7177 10.4642 16.079C10.4642 17.2596 10.9118 18.3278 11.7511 19.1711C12.5345 20.0707 13.5976 20.5204 14.7726 20.5204ZM13.5416 14.8984C13.8774 14.561 14.325 14.3924 14.7726 14.3924C15.7798 14.3924 16.5072 15.1795 16.5072 16.1352C16.5072 17.1472 15.7238 17.8781 14.7726 17.8781C13.7655 17.8781 13.0381 17.091 13.0381 16.1352C13.0381 15.6855 13.2059 15.2357 13.5416 14.8984Z" fill="white"/>
<path d="M19.5846 22.0946C19.9762 21.7011 20.0322 21.1389 19.6965 20.5767C19.4167 20.1269 18.9131 19.902 18.3536 20.0145C18.1298 20.0707 17.906 20.1831 17.6822 20.3518C15.9476 21.5324 13.5976 21.4762 11.8631 20.2956C11.7511 20.2393 11.6392 20.1831 11.5273 20.1269C10.9118 19.8458 10.2964 19.9582 9.96065 20.5204C9.56898 21.0827 9.62493 21.7011 10.1285 22.2071C10.2404 22.3195 10.3523 22.3757 10.4083 22.4882L10.4642 22.5444C11.2476 23.1628 12.1988 23.5564 13.4297 23.725L12.7023 24.4559C12.0869 25.0743 11.4154 25.749 10.7999 26.3674C10.6321 26.5361 10.4083 26.8172 10.4083 27.2107C10.4083 27.7167 10.688 28.2227 11.1916 28.4476C11.3595 28.56 11.5273 28.56 11.6952 28.56C11.975 28.56 12.3107 28.4476 12.5345 28.1665C13.3738 27.3232 14.0452 26.6485 14.7167 25.9739C14.7726 25.9176 14.7726 25.9176 14.7726 25.9176C14.7726 25.9176 14.8286 25.9176 14.8286 25.9739C15.2762 26.4798 15.7798 26.9296 16.2274 27.4356C16.4512 27.6605 16.675 27.8854 16.8988 28.1102C17.1786 28.3914 17.4024 28.5038 17.7381 28.5038C18.2417 28.56 18.8012 28.2227 19.025 27.7167C19.2489 27.2669 19.1369 26.7047 18.7453 26.3674C18.1857 25.8052 17.6262 25.1868 17.0107 24.6246L16.0595 23.6688C16.5631 23.6126 17.1226 23.5001 17.6262 23.2753C18.4655 22.9942 19.081 22.6006 19.5846 22.0946Z" fill="white"/>
<path d="M46.7747 20.4C46.7747 19.568 46.8921 18.8 47.1267 18.096C47.3614 17.3813 47.7081 16.768 48.1667 16.256C48.6254 15.7333 49.1907 15.328 49.8627 15.04C50.5347 14.752 51.3081 14.608 52.1827 14.608C53.0574 14.608 53.8307 14.752 54.5027 15.04C55.1747 15.328 55.7347 15.7333 56.1827 16.256C56.6414 16.768 56.9881 17.3813 57.2227 18.096C57.4574 18.8 57.5747 19.568 57.5747 20.4C57.5747 21.232 57.4574 22.0053 57.2227 22.72C56.9881 23.424 56.6414 24.0373 56.1827 24.56C55.7347 25.072 55.1747 25.472 54.5027 25.76C53.8307 26.048 53.0574 26.192 52.1827 26.192C51.3081 26.192 50.5347 26.048 49.8627 25.76C49.1907 25.472 48.6254 25.072 48.1667 24.56C47.7081 24.0373 47.3614 23.424 47.1267 22.72C46.8921 22.0053 46.7747 21.232 46.7747 20.4ZM49.4947 20.4C49.4947 21.0827 49.5481 21.7173 49.6547 22.304C49.7614 22.88 49.9267 23.3813 50.1507 23.808C50.3854 24.224 50.6787 24.5547 51.0307 24.8C51.3934 25.0347 51.8254 25.152 52.3267 25.152C52.7854 25.152 53.1747 25.0347 53.4947 24.8C53.8147 24.5547 54.0761 24.224 54.2787 23.808C54.4814 23.3813 54.6254 22.88 54.7107 22.304C54.8067 21.7173 54.8547 21.0827 54.8547 20.4C54.8547 19.7173 54.8014 19.088 54.6947 18.512C54.5987 17.9253 54.4387 17.424 54.2147 17.008C54.0014 16.5813 53.7134 16.2507 53.3507 16.016C52.9987 15.7707 52.5667 15.648 52.0547 15.648C51.5641 15.648 51.1534 15.7707 50.8227 16.016C50.4921 16.2507 50.2254 16.5813 50.0227 17.008C49.8307 17.424 49.6921 17.9253 49.6067 18.512C49.5321 19.088 49.4947 19.7173 49.4947 20.4ZM59.3787 26L58.5147 28.368H57.8907C57.8267 27.8453 57.7681 27.28 57.7147 26.672C57.6721 26.0747 57.6507 25.5147 57.6507 24.992H58.8187C58.9467 24.8427 59.0907 24.6187 59.2507 24.32C59.4107 24.0213 59.5601 23.6373 59.6987 23.168C59.8481 22.688 59.9707 22.1227 60.0667 21.472C60.1734 20.8107 60.2267 20.0427 60.2267 19.168C60.0027 19.1147 59.7841 19.04 59.5707 18.944C59.3681 18.848 59.1921 18.7413 59.0427 18.624V18H66.6427V18.624C66.3547 18.816 66.0027 18.944 65.5867 19.008V24.992H67.0747C67.0854 25.5147 67.0641 26.0747 67.0107 26.672C66.9681 27.28 66.9094 27.8453 66.8347 28.368H66.2107L65.3467 26H59.3787ZM61.3947 19.008C61.3947 19.904 61.3467 20.6827 61.2507 21.344C61.1547 22.0053 61.0374 22.576 60.8987 23.056C60.7601 23.536 60.6161 23.936 60.4667 24.256C60.3174 24.5653 60.1894 24.8107 60.0827 24.992H63.2827V19.008H61.3947ZM72.0422 26H67.8022V25.376C67.9516 25.2907 68.1169 25.2213 68.2982 25.168C68.4796 25.104 68.6662 25.0453 68.8582 24.992V19.008C68.6662 18.9547 68.4796 18.9013 68.2982 18.848C68.1169 18.784 67.9516 18.7093 67.8022 18.624V18H72.0422V18.624C71.7969 18.7733 71.5036 18.9013 71.1622 19.008V21.504H74.1382V19.008C73.8289 18.944 73.5356 18.816 73.2582 18.624V18H77.4982V18.624C77.2102 18.8053 76.8582 18.9333 76.4422 19.008V24.992C76.6342 25.0347 76.8209 25.0827 77.0022 25.136C77.1836 25.1893 77.3489 25.2693 77.4982 25.376V26H73.2582V25.376C73.5356 25.1733 73.8289 25.0453 74.1382 24.992V22.416H71.1622V24.992C71.3436 25.0347 71.5036 25.088 71.6422 25.152C71.7916 25.216 71.9249 25.2907 72.0422 25.376V26ZM78.4592 22C78.4592 21.3493 78.5552 20.768 78.7472 20.256C78.9499 19.7333 79.2326 19.2907 79.5952 18.928C79.9686 18.5653 80.4166 18.288 80.9392 18.096C81.4619 17.904 82.0539 17.808 82.7152 17.808C83.4619 17.808 84.1019 17.9147 84.6352 18.128C85.1792 18.3307 85.6219 18.6187 85.9632 18.992C86.3152 19.3547 86.5712 19.7973 86.7312 20.32C86.8912 20.832 86.9712 21.392 86.9712 22C86.9712 22.6507 86.8752 23.2373 86.6832 23.76C86.4912 24.272 86.2086 24.7093 85.8352 25.072C85.4726 25.4347 85.0246 25.712 84.4912 25.904C83.9686 26.096 83.3766 26.192 82.7152 26.192C81.9899 26.192 81.3606 26.0907 80.8272 25.888C80.2939 25.6747 79.8512 25.3867 79.4992 25.024C79.1472 24.6507 78.8859 24.208 78.7152 23.696C78.5446 23.1733 78.4592 22.608 78.4592 22ZM80.9392 22C80.9392 22.48 80.9659 22.9227 81.0192 23.328C81.0832 23.7227 81.1899 24.0587 81.3392 24.336C81.4886 24.6133 81.6912 24.832 81.9472 24.992C82.2032 25.1413 82.5339 25.216 82.9392 25.216C83.1739 25.216 83.3872 25.1627 83.5792 25.056C83.7712 24.9387 83.9366 24.7573 84.0752 24.512C84.2139 24.256 84.3152 23.9253 84.3792 23.52C84.4539 23.104 84.4912 22.5973 84.4912 22C84.4912 21.5093 84.4592 21.0667 84.3952 20.672C84.3419 20.2773 84.2406 19.9413 84.0912 19.664C83.9526 19.3867 83.7606 19.1733 83.5152 19.024C83.2699 18.864 82.9606 18.784 82.5872 18.784C82.3099 18.784 82.0699 18.8427 81.8672 18.96C81.6646 19.0667 81.4939 19.248 81.3552 19.504C81.2166 19.7493 81.1099 20.08 81.0352 20.496C80.9712 20.9013 80.9392 21.4027 80.9392 22ZM92.9352 18H96.5992V18.624C96.4926 18.7093 96.3592 18.784 96.1992 18.848C96.0499 18.9013 95.8472 18.9707 95.5912 19.056C95.2286 19.4933 94.8552 19.9147 94.4712 20.32C94.0872 20.7147 93.7139 21.0827 93.3512 21.424C93.5859 21.68 93.8259 21.9573 94.0712 22.256C94.3166 22.5547 94.5566 22.864 94.7912 23.184C95.0366 23.4933 95.2819 23.8027 95.5272 24.112C95.7832 24.4213 96.0392 24.7147 96.2952 24.992L96.9672 25.376V26H94.4552L93.9432 25.632C93.4846 25.0773 93.1059 24.5227 92.8072 23.968C92.5192 23.4133 92.2259 22.864 91.9272 22.32H91.2872V24.992C91.6286 25.088 91.9272 25.216 92.1832 25.376V26H87.9272V25.376C88.2152 25.2053 88.5672 25.0773 88.9832 24.992V19.008C88.6099 18.9333 88.2579 18.8053 87.9272 18.624V18H92.0072V18.624C91.9006 18.6987 91.7939 18.768 91.6872 18.832C91.5912 18.896 91.4579 18.9547 91.2872 19.008V21.616L92.0232 21.456C92.3326 21.104 92.6419 20.7253 92.9512 20.32C93.2606 19.9147 93.5432 19.4933 93.7992 19.056C93.6179 18.9813 93.4632 18.912 93.3352 18.848C93.2072 18.784 93.0739 18.7093 92.9352 18.624V18ZM99.0079 24.192C99.2745 23.6907 99.4719 22.992 99.5999 22.096C99.7279 21.1893 99.7972 20.2133 99.8079 19.168C99.5945 19.104 99.3865 19.024 99.1839 18.928C98.9919 18.832 98.8212 18.7307 98.6719 18.624V18H106.08V18.624C105.739 18.816 105.387 18.944 105.024 19.008V24.992C105.248 25.0453 105.445 25.104 105.616 25.168C105.787 25.232 105.941 25.3013 106.08 25.376V26H101.84V25.376C101.968 25.2907 102.096 25.216 102.224 25.152C102.363 25.088 102.528 25.0347 102.72 24.992V18.912H100.96C100.949 19.4773 100.917 20.0693 100.864 20.688C100.811 21.296 100.725 21.8933 100.608 22.48C100.501 23.0667 100.357 23.6213 100.176 24.144C99.9945 24.656 99.7759 25.0933 99.5199 25.456C99.3065 25.7547 99.0719 25.968 98.8159 26.096C98.5599 26.224 98.3305 26.2667 98.1279 26.224C97.9892 26.1493 97.8612 26.032 97.7439 25.872C97.6265 25.7013 97.5252 25.5253 97.4399 25.344C97.3545 25.1627 97.2852 24.9813 97.2319 24.8C97.1785 24.6187 97.1465 24.464 97.1359 24.336L97.5039 23.792L99.0079 24.192ZM114.061 23.68C114.061 23.9147 114.061 24.1173 114.061 24.288C114.072 24.4587 114.088 24.64 114.109 24.832L115.213 24.992V25.552C115.085 25.616 114.909 25.68 114.685 25.744C114.472 25.808 114.243 25.872 113.997 25.936C113.763 25.9893 113.528 26.032 113.293 26.064C113.059 26.1067 112.851 26.1387 112.669 26.16H112.125C112.019 25.9147 111.955 25.6693 111.933 25.424C111.912 25.1787 111.896 24.88 111.885 24.528H111.805C111.752 24.7413 111.661 24.9493 111.533 25.152C111.405 25.344 111.24 25.52 111.037 25.68C110.845 25.8293 110.616 25.952 110.349 26.048C110.083 26.144 109.784 26.192 109.453 26.192C109.101 26.192 108.776 26.1387 108.477 26.032C108.179 25.9253 107.917 25.776 107.693 25.584C107.469 25.392 107.293 25.1627 107.165 24.896C107.037 24.6187 106.973 24.3093 106.973 23.968C106.973 23.488 107.064 23.0933 107.245 22.784C107.427 22.4747 107.709 22.224 108.093 22.032C108.488 21.8293 108.989 21.68 109.597 21.584C110.216 21.488 110.963 21.4187 111.837 21.376C111.923 20.4587 111.885 19.7867 111.725 19.36C111.565 18.9333 111.219 18.72 110.685 18.72C110.355 18.72 110.051 18.7733 109.773 18.88L109.021 20.8H108.317C108.232 20.672 108.147 20.528 108.061 20.368C107.987 20.1973 107.912 20.0213 107.837 19.84C107.773 19.648 107.715 19.456 107.661 19.264C107.619 19.072 107.587 18.8853 107.565 18.704C107.971 18.4267 108.493 18.208 109.133 18.048C109.773 17.888 110.451 17.808 111.165 17.808C111.773 17.808 112.269 17.8773 112.653 18.016C113.037 18.144 113.336 18.3253 113.549 18.56C113.773 18.784 113.928 19.0507 114.013 19.36C114.099 19.6693 114.141 20 114.141 20.352C114.141 20.992 114.125 21.5733 114.093 22.096C114.072 22.608 114.061 23.136 114.061 23.68ZM110.461 24.912C110.685 24.912 110.877 24.8693 111.037 24.784C111.197 24.6987 111.331 24.5973 111.437 24.48C111.555 24.3627 111.64 24.2347 111.693 24.096C111.757 23.9573 111.805 23.8347 111.837 23.728V22.128C111.336 22.1387 110.925 22.1707 110.605 22.224C110.285 22.2773 110.035 22.368 109.853 22.496C109.672 22.6133 109.544 22.768 109.469 22.96C109.405 23.1413 109.373 23.3653 109.373 23.632C109.373 24.0373 109.469 24.352 109.661 24.576C109.853 24.8 110.12 24.912 110.461 24.912ZM122.744 24.704C122.669 24.9173 122.546 25.1147 122.376 25.296C122.205 25.4667 121.997 25.6213 121.752 25.76C121.517 25.8987 121.245 26.0053 120.936 26.08C120.637 26.1547 120.322 26.192 119.992 26.192C119.288 26.192 118.68 26.096 118.168 25.904C117.666 25.7013 117.25 25.4187 116.92 25.056C116.589 24.6827 116.344 24.24 116.184 23.728C116.024 23.2053 115.944 22.6293 115.944 22C115.944 20.6453 116.312 19.6107 117.048 18.896C117.794 18.1707 118.85 17.808 120.216 17.808C120.738 17.808 121.218 17.8667 121.656 17.984C122.093 18.0907 122.456 18.2187 122.744 18.368C122.722 18.5493 122.69 18.752 122.648 18.976C122.616 19.1893 122.573 19.408 122.52 19.632C122.477 19.8453 122.424 20.0587 122.36 20.272C122.296 20.4747 122.232 20.6453 122.168 20.784H121.384L120.712 18.88C120.637 18.8267 120.557 18.7893 120.472 18.768C120.386 18.736 120.258 18.72 120.088 18.72C119.81 18.72 119.57 18.7733 119.368 18.88C119.165 18.976 118.989 19.1467 118.84 19.392C118.701 19.6373 118.594 19.9627 118.52 20.368C118.456 20.7733 118.424 21.2747 118.424 21.872C118.424 22.3093 118.472 22.7147 118.568 23.088C118.664 23.4507 118.808 23.7707 119 24.048C119.202 24.3147 119.453 24.528 119.752 24.688C120.05 24.8373 120.402 24.912 120.808 24.912C121.181 24.912 121.506 24.8587 121.784 24.752C122.061 24.6453 122.296 24.5173 122.488 24.368L122.744 24.704ZM130.259 24.704C130.185 24.9173 130.062 25.1147 129.891 25.296C129.721 25.4667 129.513 25.6213 129.267 25.76C129.033 25.8987 128.761 26.0053 128.451 26.08C128.153 26.1547 127.838 26.192 127.507 26.192C126.803 26.192 126.195 26.096 125.683 25.904C125.182 25.7013 124.766 25.4187 124.435 25.056C124.105 24.6827 123.859 24.24 123.699 23.728C123.539 23.2053 123.459 22.6293 123.459 22C123.459 20.6453 123.827 19.6107 124.563 18.896C125.31 18.1707 126.366 17.808 127.731 17.808C128.254 17.808 128.734 17.8667 129.171 17.984C129.609 18.0907 129.971 18.2187 130.259 18.368C130.238 18.5493 130.206 18.752 130.163 18.976C130.131 19.1893 130.089 19.408 130.035 19.632C129.993 19.8453 129.939 20.0587 129.875 20.272C129.811 20.4747 129.747 20.6453 129.683 20.784H128.899L128.227 18.88C128.153 18.8267 128.073 18.7893 127.987 18.768C127.902 18.736 127.774 18.72 127.603 18.72C127.326 18.72 127.086 18.7733 126.883 18.88C126.681 18.976 126.505 19.1467 126.355 19.392C126.217 19.6373 126.11 19.9627 126.035 20.368C125.971 20.7733 125.939 21.2747 125.939 21.872C125.939 22.3093 125.987 22.7147 126.083 23.088C126.179 23.4507 126.323 23.7707 126.515 24.048C126.718 24.3147 126.969 24.528 127.267 24.688C127.566 24.8373 127.918 24.912 128.323 24.912C128.697 24.912 129.022 24.8587 129.299 24.752C129.577 24.6453 129.811 24.5173 130.003 24.368L130.259 24.704ZM135.417 26H131.177V25.376C131.327 25.2907 131.492 25.2213 131.673 25.168C131.855 25.104 132.041 25.0453 132.233 24.992V19.008C132.041 18.9547 131.855 18.9013 131.673 18.848C131.492 18.784 131.327 18.7093 131.177 18.624V18H135.417V18.624C135.172 18.7733 134.879 18.9013 134.537 19.008V21.504H137.513V19.008C137.204 18.944 136.911 18.816 136.633 18.624V18H140.873V18.624C140.585 18.8053 140.233 18.9333 139.817 19.008V24.992C140.009 25.0347 140.196 25.0827 140.377 25.136C140.559 25.1893 140.724 25.2693 140.873 25.376V26H136.633V25.376C136.911 25.1733 137.204 25.0453 137.513 24.992V22.416H134.537V24.992C134.719 25.0347 134.879 25.088 135.017 25.152C135.167 25.216 135.3 25.2907 135.417 25.376V26ZM141.802 18H146.058V18.624C145.941 18.688 145.802 18.752 145.642 18.816C145.493 18.88 145.312 18.944 145.098 19.008V22.608L144.922 24.096H145.002L145.626 22.896L148.554 18H151.578V18.624C151.237 18.816 150.885 18.944 150.522 19.008V24.992C150.725 25.0453 150.917 25.104 151.098 25.168C151.28 25.2213 151.44 25.2907 151.578 25.376V26H147.322V25.376C147.621 25.2053 147.941 25.0773 148.282 24.992V21.216L148.442 19.952H148.362L147.754 21.152L144.858 26H141.802V25.376C141.984 25.2907 142.16 25.2213 142.33 25.168C142.501 25.104 142.677 25.0453 142.858 24.992V19.008C142.442 18.944 142.09 18.816 141.802 18.624V18ZM157.513 18H161.177V18.624C161.071 18.7093 160.937 18.784 160.777 18.848C160.628 18.9013 160.425 18.9707 160.169 19.056C159.807 19.4933 159.433 19.9147 159.049 20.32C158.665 20.7147 158.292 21.0827 157.929 21.424C158.164 21.68 158.404 21.9573 158.649 22.256C158.895 22.5547 159.135 22.864 159.369 23.184C159.615 23.4933 159.86 23.8027 160.105 24.112C160.361 24.4213 160.617 24.7147 160.873 24.992L161.545 25.376V26H159.033L158.521 25.632C158.063 25.0773 157.684 24.5227 157.385 23.968C157.097 23.4133 156.804 22.864 156.505 22.32H155.865V24.992C156.207 25.088 156.505 25.216 156.761 25.376V26H152.505V25.376C152.793 25.2053 153.145 25.0773 153.561 24.992V19.008C153.188 18.9333 152.836 18.8053 152.505 18.624V18H156.585V18.624C156.479 18.6987 156.372 18.768 156.265 18.832C156.169 18.896 156.036 18.9547 155.865 19.008V21.616L156.601 21.456C156.911 21.104 157.22 20.7253 157.529 20.32C157.839 19.9147 158.121 19.4933 158.377 19.056C158.196 18.9813 158.041 18.912 157.913 18.848C157.785 18.784 157.652 18.7093 157.513 18.624V18ZM162.005 18H166.261V18.624C166.144 18.688 166.005 18.752 165.845 18.816C165.696 18.88 165.515 18.944 165.301 19.008V22.608L165.125 24.096H165.205L165.829 22.896L168.757 18H171.781V18.624C171.44 18.816 171.088 18.944 170.725 19.008V24.992C170.928 25.0453 171.12 25.104 171.301 25.168C171.483 25.2213 171.643 25.2907 171.781 25.376V26H167.525V25.376C167.824 25.2053 168.144 25.0773 168.485 24.992V21.216L168.645 19.952H168.565L167.957 21.152L165.061 26H162.005V25.376C162.187 25.2907 162.363 25.2213 162.533 25.168C162.704 25.104 162.88 25.0453 163.061 24.992V19.008C162.645 18.944 162.293 18.816 162.005 18.624V18Z" fill="black"/>
</svg>
