<svg width="27" height="23" viewBox="0 0 27 23" fill="none" xmlns="http://www.w3.org/2000/svg">
<path d="M25.0865 1.85684C23.8107 0.618771 22.0481 0 19.7979 0C19.1751 0 18.5396 0.107307 17.8919 0.321816C17.2439 0.536482 16.641 0.826095 16.0841 1.19044C15.5264 1.55469 15.0471 1.89675 14.645 2.2161C14.2434 2.53556 13.8616 2.87505 13.5 3.23431C13.1383 2.87505 12.7566 2.53556 12.355 2.2161C11.953 1.89675 11.4735 1.5549 10.9159 1.19044C10.3584 0.825937 9.75573 0.536534 9.10789 0.321816C8.4601 0.107359 7.82466 0 7.20194 0C4.95185 0 3.18913 0.618928 1.9135 1.85684C0.637867 3.09464 0 4.81155 0 7.00772C0 7.67658 0.118212 8.36563 0.35416 9.07403C0.590108 9.7828 0.858987 10.3868 1.16027 10.8859C1.4615 11.3849 1.8031 11.8715 2.1848 12.3457C2.56651 12.8199 2.84547 13.1467 3.02104 13.3263C3.19678 13.506 3.33494 13.6359 3.43537 13.7159L12.837 22.7302C13.0179 22.9099 13.2389 23 13.5 23C13.7611 23 13.9822 22.9099 14.163 22.7302L23.5497 13.7455C25.85 11.4599 27 9.21375 27 7.00751C27.0001 4.81118 26.3622 3.09443 25.0865 1.85684ZM22.2388 12.3382L13.5 20.7085L4.7463 12.3231C2.8679 10.4567 1.92885 8.68461 1.92885 7.00751C1.92885 6.19904 2.03683 5.48518 2.25267 4.86641C2.46867 4.24753 2.74488 3.75574 3.08136 3.39139C3.4179 3.02693 3.82715 2.73019 4.30929 2.50042C4.79169 2.27086 5.26374 2.11608 5.72572 2.03626C6.18769 1.95654 6.6798 1.91663 7.2022 1.91663C7.72444 1.91663 8.28705 2.04376 8.88972 2.29839C9.49228 2.55292 10.0472 2.87237 10.5544 3.25665C11.0618 3.64119 11.4962 4.00051 11.8579 4.33481C12.2195 4.66942 12.5207 4.97618 12.7618 5.25573C12.9425 5.47543 13.1888 5.58525 13.5001 5.58525C13.8114 5.58525 14.0575 5.47543 14.2384 5.25573C14.4794 4.97618 14.7809 4.66926 15.1424 4.33481C15.504 4.00051 15.9385 3.64135 16.4456 3.25665C16.9529 2.87237 17.5079 2.55292 18.1108 2.29839C18.7132 2.04381 19.276 1.91663 19.7983 1.91663C20.3206 1.91663 20.8125 1.95654 21.2747 2.03626C21.7368 2.11603 22.2089 2.27086 22.6911 2.50042C23.1733 2.73013 23.5826 3.02709 23.919 3.39139C24.2555 3.75574 24.5318 4.24753 24.7478 4.86641C24.9634 5.48518 25.0714 6.19904 25.0714 7.00751C25.0713 8.68461 24.1273 10.4617 22.2388 12.3382Z" fill="white"/>
</svg>
