<svg width="18" height="18" viewBox="0 0 18 18" fill="none" xmlns="http://www.w3.org/2000/svg">
<path d="M8.1392 9.00276L0.17164 17.026C-0.0497129 17.2489 -0.0497129 17.61 0.17164 17.8329C0.282175 17.9445 0.427306 18 0.572155 18C0.717286 18 0.862135 17.9445 0.972671 17.8329L9.00014 9.74934L17.0276 17.8329C17.1384 17.9445 17.2833 18 17.4281 18C17.573 18 17.7181 17.9445 17.8286 17.8329C18.05 17.61 18.05 17.2489 17.8286 17.026L9.86136 9.00276L17.834 0.973872C18.0553 0.750974 18.0553 0.38986 17.834 0.166962C17.6126 -0.0556539 17.254 -0.0556539 17.033 0.166962L9.00042 8.25618L0.967046 0.167245C0.745693 -0.0553707 0.387367 -0.0553707 0.166014 0.167245C-0.0553381 0.390144 -0.0553381 0.751257 0.166014 0.974156L8.1392 9.00276Z" fill="white"/>
</svg>
