<svg width="23" height="20" viewBox="0 0 23 20" fill="none" xmlns="http://www.w3.org/2000/svg">
<path d="M21.37 1.61464C20.2832 0.538062 18.7817 0 16.8648 0C16.3344 0 15.793 0.0933103 15.2412 0.27984C14.6892 0.466506 14.1757 0.718343 13.7012 1.03517C13.2262 1.3519 12.8179 1.64935 12.4754 1.92704C12.1333 2.20483 11.808 2.50004 11.5 2.81244C11.1919 2.50004 10.8667 2.20483 10.5246 1.92704C10.1822 1.64935 9.77376 1.35209 9.29877 1.03517C8.82386 0.718206 8.31044 0.466551 7.75857 0.27984C7.20675 0.0933559 6.66545 0 6.13498 0C4.21824 0 2.71666 0.538199 1.63002 1.61464C0.543368 2.69099 0 4.18396 0 6.09367C0 6.67529 0.100699 7.27446 0.301692 7.89046C0.502685 8.50679 0.731729 9.03203 0.988376 9.46597C1.24498 9.89987 1.53597 10.323 1.86113 10.7354C2.18629 11.1477 2.42392 11.4319 2.57348 11.5881C2.72318 11.7444 2.84087 11.8573 2.92642 11.9268L10.9353 19.7654C11.0893 19.9216 11.2775 20 11.5 20C11.7224 20 11.9108 19.9216 12.0647 19.7654L20.0609 11.9526C22.0203 9.96509 23 8.01196 23 6.09349C23 4.18364 22.4567 2.69081 21.37 1.61464Z" fill="white"/>
</svg>
