<svg width="12" height="12" viewBox="0 0 12 12" fill="none" xmlns="http://www.w3.org/2000/svg">
<path d="M11.6862 4.47157C11.431 4.13275 11.0561 3.91135 10.6306 3.84822C10.5458 3.83561 10.459 3.82982 10.3735 3.83043H7.7003V2.12257C7.7003 0.952165 6.72642 0 5.52939 0C5.33501 0 5.15884 0.111922 5.0799 0.285608L2.84121 5.21047C2.81326 5.27198 2.79883 5.33851 2.79883 5.4058V11.4251C2.79883 11.6908 3.01907 11.9061 3.29072 11.9061H9.60112C9.60623 11.9061 9.61132 11.9061 9.61641 11.9061C9.99857 11.9061 10.3685 11.7733 10.6599 11.5311C10.956 11.285 11.1512 10.9426 11.2093 10.5677L11.9818 5.64216C12.0464 5.22614 11.9414 4.8104 11.6862 4.47157ZM11.0093 5.4971L10.2368 10.4228C10.1905 10.7212 9.9245 10.9442 9.61641 10.9442C9.6141 10.9442 9.61168 10.9442 9.60937 10.9442C9.60751 10.9442 9.60568 10.9442 9.60383 10.9442H3.78264V5.50789L5.83175 1.00005C6.34037 1.13111 6.71651 1.58468 6.71651 2.12257V4.31142C6.71651 4.57703 6.93672 4.79236 7.2084 4.79236H10.3761C10.378 4.79236 10.3798 4.79236 10.3817 4.79234C10.4154 4.79203 10.4495 4.79429 10.483 4.79924C10.6487 4.82382 10.7947 4.91005 10.894 5.04199C10.9934 5.17394 11.0343 5.33581 11.0093 5.4971Z" fill="#000106"/>
<path d="M3.29026 10.9441H1.61125C1.26529 10.9441 0.983814 10.6689 0.983814 10.3306V6.50016C0.983814 6.16188 1.26529 5.88669 1.61125 5.88669H3.29026C3.56192 5.88669 3.78216 5.67136 3.78216 5.40575C3.78216 5.14014 3.56192 4.9248 3.29026 4.9248H1.61125C0.722811 4.9248 0 5.63152 0 6.50018V10.3306C0 11.1993 0.722811 11.906 1.61125 11.906H3.29026C3.56195 11.906 3.78216 11.6907 3.78216 11.4251C3.78216 11.1594 3.56192 10.9441 3.29026 10.9441Z" fill="#000106"/>
</svg>
