<svg width="26" height="25" viewBox="0 0 26 25" fill="none" xmlns="http://www.w3.org/2000/svg">
<path d="M13.6437 0.0375977C7.24745 0.0375977 2.08423 5.25219 2.08423 11.6741C2.08423 13.8062 2.64936 15.8612 3.72824 17.6593L0.542969 24.6978L7.91533 21.8207C9.66209 22.8226 11.6144 23.3363 13.6437 23.3363C20.0399 23.3363 25.2031 18.1217 25.2031 11.6998C25.2031 5.27788 20.0142 0.0375977 13.6437 0.0375977ZM13.6437 22.3088C11.8199 22.3088 10.0217 21.8464 8.42908 20.9217L7.99239 20.6648L2.52092 22.8226L4.88418 17.608L4.60162 17.1456C3.62549 15.5016 3.11174 13.6007 3.11174 11.6741C3.08605 5.84301 7.78689 1.0651 13.6437 1.0651C19.5005 1.0651 24.1756 5.84301 24.1756 11.6741C24.1756 17.5052 19.4748 22.3088 13.6437 22.3088Z" fill="#000106"/>
<path d="M8.12709 11.6983C8.74423 12.8576 9.55094 13.9054 10.5138 14.7985C11.4021 15.7605 12.4474 16.5646 13.6052 17.1764C14.3752 17.6032 15.26 17.7767 16.1342 17.6724C17.0084 17.5681 17.8276 17.1912 18.4755 16.5951L18.6429 16.4278C18.7962 16.2767 18.9161 16.0952 18.995 15.895C19.0738 15.6948 19.1099 15.4803 19.1009 15.2652C19.0925 15.045 19.0361 14.8292 18.9357 14.633C18.8353 14.4368 18.6933 14.2648 18.5196 14.1291L17.3482 13.1956C16.9822 12.9055 16.5233 12.7582 16.0568 12.7809C15.5904 12.8035 15.148 12.9947 14.8117 13.3189V13.3629C14.7392 13.435 14.641 13.4754 14.5387 13.4754C14.4364 13.4754 14.3383 13.435 14.2657 13.3629L11.9934 11.0906C11.9266 11.0189 11.8894 10.9245 11.8894 10.8264C11.8894 10.7284 11.9266 10.6339 11.9934 10.5622C12.3218 10.2145 12.5126 9.75928 12.5304 9.28136C12.5482 8.80343 12.3918 8.33531 12.0903 7.96408L11.1127 6.79272C10.9856 6.62596 10.8253 6.48741 10.6418 6.38584C10.4584 6.28427 10.2559 6.22188 10.0471 6.20264H9.96779C9.76722 6.20358 9.56886 6.24457 9.38435 6.32322C9.19983 6.40186 9.03289 6.51657 8.89331 6.66061L8.71717 6.83676C8.11193 7.47751 7.72804 8.29542 7.62183 9.1704C7.51563 10.0454 7.69271 10.9314 8.12709 11.6983ZM9.43936 7.55895L9.6155 7.3828C9.66219 7.33141 9.71939 7.29066 9.78321 7.2633C9.84703 7.23595 9.91599 7.22264 9.9854 7.22427C10.0551 7.23107 10.1226 7.25266 10.1834 7.28759C10.2441 7.32251 10.2967 7.36999 10.3377 7.42684L11.2977 8.63342C11.4258 8.81116 11.4879 9.02797 11.4734 9.24657C11.459 9.46516 11.3688 9.67189 11.2184 9.8312C10.9576 10.095 10.8113 10.451 10.8113 10.822C10.8113 11.193 10.9576 11.549 11.2184 11.8128L13.4995 14.1291C13.6314 14.2625 13.7884 14.3684 13.9615 14.4407C14.1346 14.513 14.3203 14.5502 14.5079 14.5502C14.6955 14.5502 14.8812 14.513 15.0543 14.4407C15.2274 14.3684 15.3844 14.2625 15.5163 14.1291C15.6699 13.9768 15.8742 13.8863 16.0902 13.8749C16.3063 13.8635 16.5189 13.9321 16.6877 14.0675L17.859 15.0275C17.9191 15.072 17.9689 15.1288 18.0054 15.1941C18.0418 15.2594 18.064 15.3317 18.0704 15.4062C18.0701 15.4787 18.0552 15.5504 18.0264 15.617C17.9976 15.6836 17.9557 15.7437 17.9031 15.7937L17.7357 15.961C17.1529 16.5026 16.3823 16.7963 15.5868 16.7801C15.0743 16.7874 14.5693 16.6566 14.1248 16.4014L14.0543 16.3573H13.9927C13.7534 16.2405 13.5237 16.105 13.3057 15.9522C12.5557 15.4325 11.8568 14.8427 11.2184 14.1908C10.5636 13.555 9.97357 12.8558 9.45697 12.1035C9.30414 11.8854 9.16868 11.6557 9.05184 11.4165V11.3372V11.2668C8.71251 10.6882 8.56707 10.0163 8.63679 9.34923C8.70651 8.68214 8.98773 8.05483 9.43936 7.55895Z" fill="#000106"/>
</svg>
