<svg width="19" height="20" viewBox="0 0 19 20" fill="none" xmlns="http://www.w3.org/2000/svg">
<path d="M9.67773 19.0746V18.5646C9.68941 17.1445 9.8064 15.7273 10.0277 14.3246C10.1774 13.2771 10.6492 12.302 11.3777 11.5346C12.1496 10.7901 13.1362 10.3073 14.1977 10.1546C15.6075 9.93856 17.0315 9.82825 18.4577 9.82459H18.9677V10.3246C18.9977 11.77 18.941 13.216 18.7977 14.6546C18.7462 15.7755 18.3321 16.8493 17.6177 17.7146C16.7768 18.432 15.7218 18.8504 14.6177 18.9046C13.1659 19.0503 11.7065 19.1071 10.2477 19.0746H9.67773ZM17.9477 10.8346C16.7486 10.8466 15.5521 10.9468 14.3677 11.1346C13.5129 11.2521 12.7159 11.6331 12.0877 12.2246C11.5012 12.851 11.1237 13.6443 11.0077 14.4946C10.82 15.6789 10.7197 16.8755 10.7077 18.0746C11.9565 18.0949 13.2053 18.0415 14.4477 17.9146C15.3379 17.8757 16.194 17.5612 16.8977 17.0146C17.4415 16.2949 17.7521 15.426 17.7877 14.5246C17.9129 13.2988 17.9663 12.0667 17.9477 10.8346ZM9.46773 19.0746H8.95773C7.49563 19.1073 6.03289 19.0505 4.57773 18.9046C3.47645 18.846 2.42384 18.4319 1.57773 17.7246C0.850514 16.8605 0.425612 15.7825 0.367728 14.6546C0.228001 13.2157 0.171241 11.77 0.197728 10.3246V9.80459H0.717728C2.14065 9.80819 3.5613 9.9185 4.96773 10.1346C6.01845 10.2805 6.99554 10.7568 7.75773 11.4946C8.50391 12.2681 8.98384 13.2595 9.12773 14.3246C9.34112 15.7347 9.45141 17.1585 9.45773 18.5846L9.46773 19.0746ZM1.19773 10.8346C1.18184 12.0669 1.23861 13.299 1.36773 14.5246C1.39422 15.4324 1.70949 16.3082 2.26773 17.0246C2.96827 17.5686 3.82145 17.8798 4.70773 17.9146C5.94681 18.0415 7.19233 18.095 8.43773 18.0746C8.42576 16.8755 8.32549 15.6789 8.13773 14.4946C8.02486 13.6384 7.64321 12.8401 7.04773 12.2146C6.42398 11.6241 5.6294 11.246 4.77773 11.1346C3.5935 10.9458 2.39685 10.8456 1.19773 10.8346ZM18.9477 9.59459H18.4377C17.018 9.58399 15.601 9.47036 14.1977 9.25459C13.1498 9.09959 12.1754 8.62459 11.4077 7.89459C10.6742 7.1254 10.1988 6.14664 10.0477 5.09459C9.82494 3.68866 9.70795 2.26801 9.69773 0.844586V0.324586H10.1977C11.6565 0.297092 13.1155 0.353853 14.5677 0.494586C15.6689 0.55392 16.7212 0.96786 17.5677 1.67459C18.2891 2.54433 18.7069 3.62575 18.7577 4.75459C18.9013 6.1932 18.9581 7.63915 18.9277 9.08459L18.9477 9.59459ZM10.7077 1.32459C10.7192 2.52369 10.8195 3.7203 11.0077 4.90459C11.1206 5.76079 11.5022 6.5591 12.0977 7.18459C12.7215 7.7751 13.5161 8.15313 14.3677 8.26459C15.5521 8.45235 16.7486 8.55262 17.9477 8.56459C17.9661 7.33252 17.9126 6.10044 17.7877 4.87459C17.7524 3.97149 17.438 3.10155 16.8877 2.38459C16.1875 1.83998 15.3341 1.52871 14.4477 1.49459C13.2055 1.36382 11.9567 1.30705 10.7077 1.32459ZM0.197728 9.59459V9.08459C0.172526 7.6392 0.229284 6.19355 0.367728 4.75459C0.417836 3.63039 0.831972 2.55293 1.54773 1.68459C2.39476 0.977346 3.44621 0.560271 4.54773 0.494586C6.01321 0.352712 7.48568 0.29595 8.95773 0.324586H9.46773V0.844586C9.46153 2.2674 9.35123 3.68786 9.13773 5.09459C8.98184 6.14428 8.50302 7.1194 7.76773 7.88459C6.99948 8.62118 6.02077 9.10005 4.96773 9.25459C3.56095 9.46763 2.14053 9.57792 0.717728 9.58459L0.197728 9.59459ZM8.43773 1.32459C7.19212 1.30728 5.94659 1.36405 4.70773 1.49459C3.81593 1.52539 2.9574 1.84077 2.25773 2.39459C1.70521 3.10576 1.39349 3.97438 1.36773 4.87459C1.23909 6.10021 1.18233 7.33232 1.19773 8.56459C2.39683 8.55313 3.59344 8.45285 4.77773 8.26459C5.63555 8.15719 6.43549 7.77476 7.05773 7.17459C7.6696 6.5585 8.06896 5.76328 8.19773 4.90459C8.35982 3.71818 8.44001 2.52201 8.43773 1.32459Z" fill="#000106"/>
</svg>
