<svg width="30" height="18" viewBox="0 0 30 18" fill="none" xmlns="http://www.w3.org/2000/svg">
<path d="M28.4727 13.5125C27.8428 12.7576 27.1311 12.0835 26.4428 11.4317C26.201 11.2026 25.9508 10.9656 25.7098 10.7304C25.7098 10.7304 25.7097 10.7303 25.7097 10.7302C25.3856 10.4141 25.2269 10.1897 25.2104 10.024C25.1941 9.86114 25.3054 9.61946 25.5614 9.26222C25.9443 8.7249 26.3524 8.18668 26.7471 7.66621C27.098 7.20355 27.4608 6.72511 27.8085 6.24395L27.8866 6.13592C28.565 5.19691 29.2665 4.22595 29.6424 3.04271C29.7497 2.70347 29.8612 2.20144 29.5923 1.76072C29.3233 1.31989 28.8246 1.18924 28.4732 1.1294C28.3015 1.09999 28.1386 1.09756 27.9871 1.09756L23.5863 1.09365C22.8255 1.08098 22.2977 1.44161 22.01 2.1658C21.7798 2.74419 21.5079 3.41448 21.1929 4.05033C20.5903 5.27785 19.8245 6.69168 18.7146 7.86966L18.6653 7.92214C18.5897 8.0028 18.4662 8.1347 18.4028 8.16496C18.2826 8.08939 18.1439 7.65722 18.1502 7.43081C18.1504 7.42521 18.1504 7.41967 18.1504 7.41412L18.1465 2.32921C18.1465 2.30336 18.1447 2.27751 18.1413 2.25189C18.0426 1.52645 17.8501 0.799202 16.702 0.572623C16.6651 0.565326 16.6277 0.561707 16.5903 0.561707H12.0126C11.1513 0.561707 10.6958 0.956099 10.3306 1.38369C10.2249 1.50835 9.94401 1.83934 10.0871 2.24397C10.2319 2.65341 10.6633 2.73514 10.805 2.76195C11.3038 2.85663 11.5618 3.13858 11.6417 3.6776C11.7995 4.72492 11.8189 5.84532 11.7026 7.2018C11.6702 7.56599 11.6099 7.84279 11.5126 8.07299C11.4857 8.13673 11.4621 8.17621 11.4456 8.19946C11.4192 8.18883 11.3782 8.16846 11.3214 8.12961C10.9709 7.88974 10.7067 7.51684 10.4512 7.15632C9.43073 5.71557 8.57237 4.12431 7.82674 2.29092C7.51968 1.53963 6.94242 1.12001 6.20239 1.10915C4.79246 1.08568 3.48847 1.08624 2.21723 1.11096C1.61764 1.12137 1.19717 1.31011 0.96731 1.67204C0.737167 2.03464 0.745595 2.49696 0.992423 3.04639C2.75687 6.96996 4.35899 9.8242 6.18701 12.3012C7.47414 14.0451 8.76982 15.2555 10.2645 16.1107C11.835 17.0092 13.6061 17.4495 15.6608 17.4495C15.8945 17.4495 16.1322 17.4437 16.3731 17.4323C17.6408 17.3745 18.1565 16.8703 18.2128 15.6356C18.2444 14.9831 18.317 14.4545 18.569 13.9952C18.6394 13.8667 18.719 13.7805 18.7816 13.7647C18.8483 13.7481 18.9664 13.7888 19.0978 13.8742C19.338 14.0302 19.5448 14.2417 19.7149 14.4274C19.8873 14.6161 20.0615 14.8111 20.2301 14.9996C20.5889 15.401 20.9599 15.8161 21.3485 16.212C22.2277 17.1082 23.2411 17.5191 24.3619 17.4331L28.3893 17.4349C28.3894 17.4349 28.3895 17.4349 28.3895 17.4349C28.4023 17.4349 28.4151 17.4345 28.4279 17.4337C28.8924 17.4027 29.294 17.1456 29.5299 16.7279C29.8139 16.225 29.8096 15.588 29.5182 15.0232C29.2141 14.436 28.8196 13.9307 28.4727 13.5125ZM28.5253 16.1607C28.4698 16.259 28.4013 16.277 28.3659 16.2813L24.3394 16.2794C24.3393 16.2794 24.3392 16.2794 24.339 16.2794C24.3231 16.2794 24.3073 16.28 24.2915 16.2814C23.4982 16.3474 22.824 16.0686 22.1719 15.404C21.8021 15.0272 21.4402 14.6224 21.0903 14.2309C20.9198 14.0401 20.7435 13.8428 20.5663 13.6489C20.3466 13.409 20.0751 13.1332 19.7262 12.9067C19.2038 12.5676 18.7709 12.5778 18.4998 12.6462C18.2315 12.7137 17.8502 12.9066 17.5575 13.4408C17.1783 14.1319 17.0947 14.8774 17.0606 15.5818C17.0409 16.0125 16.9681 16.1263 16.9377 16.1552C16.8978 16.1931 16.7645 16.2598 16.3199 16.2801C14.1833 16.3805 12.3902 15.9979 10.8375 15.1095C9.48672 14.3367 8.30394 13.2266 7.11533 11.6163C5.33793 9.20798 3.77404 6.41912 2.04472 2.5736C1.98205 2.4343 1.96271 2.34736 1.95711 2.30081C2.00123 2.28633 2.08742 2.26727 2.23855 2.2645C3.4969 2.24013 4.78726 2.23945 6.18446 2.26275C6.37575 2.26558 6.59356 2.32299 6.75849 2.72654C7.53755 4.64217 8.43748 6.30928 9.50985 7.82328C9.79458 8.22514 10.149 8.72535 10.6698 9.08174C11.1469 9.40843 11.5341 9.39282 11.7749 9.32223C12.0159 9.25159 12.3502 9.05533 12.5755 8.52208C12.7208 8.17836 12.8086 7.79132 12.8521 7.3023C12.9764 5.85137 12.9543 4.64506 12.7828 3.50724C12.6619 2.69204 12.241 2.10314 11.578 1.80241C11.6957 1.7411 11.8284 1.71553 12.0127 1.71553H16.5305C16.7847 1.77254 16.8351 1.83951 16.8523 1.86242C16.9255 1.95976 16.9673 2.19001 16.9929 2.36993L16.9968 7.40796C16.9866 7.89092 17.2213 8.96206 18.0205 9.25577C18.0271 9.25821 18.0337 9.26047 18.0403 9.26262C18.7679 9.5004 19.2491 8.98677 19.5075 8.71082L19.5536 8.66184C20.7694 7.37142 21.5881 5.86364 22.2277 4.56078C22.5611 3.888 22.8434 3.19209 23.0822 2.59221C23.2016 2.29137 23.3103 2.24182 23.5697 2.24731C23.5733 2.24742 23.5768 2.24742 23.5804 2.24742L27.9867 2.25132C28.0892 2.25132 28.1962 2.25251 28.2791 2.26671C28.4891 2.30245 28.5756 2.34601 28.6041 2.36405C28.607 2.39748 28.6063 2.49363 28.5429 2.6943C28.2232 3.70045 27.6056 4.5553 26.9517 5.46037L26.8736 5.56857C26.5338 6.0387 26.175 6.51171 25.8282 6.96922C25.4283 7.49642 25.0149 8.04149 24.623 8.59159C23.7852 9.76063 23.8588 10.5364 24.9044 11.5563C25.1515 11.7975 25.4048 12.0375 25.6498 12.2695C26.3444 12.9274 27.0006 13.5489 27.5862 14.2505C27.8927 14.6201 28.2402 15.0639 28.4935 15.5531C28.6256 15.8091 28.5932 16.0404 28.5253 16.1607Z" fill="#000106"/>
</svg>
