<svg width="19" height="19" viewBox="0 0 19 19" fill="none" xmlns="http://www.w3.org/2000/svg">
<g clip-path="url(#clip0)">
<mask id="path-1-inside-1" fill="white">
<path d="M12.8587 1.39126C14.7137 3.24624 14.7137 6.25378 12.8587 8.10876C11.0037 9.96373 7.99621 9.96373 6.14123 8.10876C4.28626 6.25378 4.28626 3.24624 6.14123 1.39126C7.99621 -0.463754 11.0037 -0.463754 12.8587 1.39126Z"/>
</mask>
<path d="M6.14123 1.39126L6.84834 2.09837L6.84835 2.09836L6.14123 1.39126ZM12.1516 2.09837C13.6161 3.56282 13.6161 5.93719 12.1516 7.40165L13.5658 8.81586C15.8113 6.57036 15.8113 2.92966 13.5658 0.684156L12.1516 2.09837ZM12.1516 7.40165C10.6872 8.8661 8.3128 8.8661 6.84834 7.40165L5.43413 8.81586C7.67963 11.0614 11.3203 11.0614 13.5658 8.81586L12.1516 7.40165ZM6.84834 7.40165C5.38389 5.93719 5.38389 3.56282 6.84834 2.09837L5.43413 0.684156C3.18862 2.92966 3.18862 6.57036 5.43413 8.81586L6.84834 7.40165ZM6.84835 2.09836C8.3128 0.633879 10.6872 0.633879 12.1516 2.09836L13.5658 0.684163C11.3203 -1.56139 7.67963 -1.56139 5.43412 0.684163L6.84835 2.09836Z" fill="#1F1F1F" mask="url(#path-1-inside-1)"/>
<path d="M16.5063 13.3378L16.5064 13.3379C17.0073 13.676 17.3125 14.2515 17.3125 14.8845V18.5001H1.6875V14.8845C1.6875 14.2515 1.99269 13.676 2.49356 13.3379L2.49372 13.3378C6.6548 10.5262 12.3452 10.5262 16.5063 13.3378Z" stroke="#1F1F1F"/>
</g>
<defs>
<clipPath id="clip0">
<rect width="19" height="19" fill="white"/>
</clipPath>
</defs>
</svg>
