<svg xmlns="http://www.w3.org/2000/svg" width="132" height="14" viewBox="0 0 132 14" fill="none">
<path fill-rule="evenodd" clip-rule="evenodd" d="M0 14H17.737L20.2719 3.88867H2.34816L0 14Z" fill="#CCCCCC"/>
<path fill-rule="evenodd" clip-rule="evenodd" d="M0 14H17.737V0H0V14Z" fill="#E2E2E2"/>
<path fill-rule="evenodd" clip-rule="evenodd" d="M2.53516 3.49985H15.2048V1.94531H2.53516V3.49985ZM9.29079 5.44646H15.2048V4.6669H9.29079V5.44646ZM9.29079 7.001H15.2048V6.22373H9.29079V7.001ZM9.29079 8.55553H15.2048V7.77826H9.29079V8.55553ZM9.29079 10.1124H15.2048V9.33509H9.29079V10.1124ZM9.29079 11.6669H15.2048V10.8896H9.29079V11.6669Z" fill="black"/>
<path fill-rule="evenodd" clip-rule="evenodd" d="M2.53516 11.666H8.41925L8.44664 4.66602H2.56006L2.53516 11.666Z" fill="#FF3333"/>
<g transform="translate(30,0)"><path fill-rule="evenodd" clip-rule="evenodd" d="M6.00458 10.9917H7.92943V0.804688H5.12807C2.30928 0.804688 0.832651 2.14141 0.832651 4.10636C0.832651 5.67465 1.64193 6.59408 3.09366 7.5456L0.576172 10.9848H2.66038L5.46423 7.13289L4.49309 6.53217C3.31528 5.79617 2.75003 5.22755 2.75003 3.99401C2.75003 2.9118 3.57674 2.1758 5.15546 2.1758H6.01205V10.9917H6.00458ZM31.3015 10.4988V9.07262C30.5555 9.50743 29.6941 9.74536 28.8114 9.76047C27.4244 9.76047 26.9015 9.15975 26.8193 7.92621H31.3812V7.00908C31.3812 4.4434 30.156 3.47583 28.2586 3.47583C25.9527 3.47583 24.8521 5.10374 24.8521 7.33237C24.8521 9.89804 26.2242 11.143 28.6445 11.143C29.5796 11.1757 30.5043 10.9523 31.3015 10.5011V10.4988ZM43.1419 11.1522C44.0209 11.1522 44.6359 11.0032 45.1016 10.6936V9.26293C44.5618 9.60792 43.9156 9.78323 43.2589 9.76276C41.9018 9.76276 41.344 8.79519 41.344 7.27046C41.344 5.66548 42.0338 4.85153 43.2738 4.85153C43.916 4.85555 44.546 5.0136 45.1016 5.31009V3.81517C44.7057 3.6134 44.0059 3.46437 43.0672 3.46437C40.6468 3.46437 39.3868 5.06935 39.3868 7.30714C39.3868 9.77652 40.6119 11.1522 43.1419 11.1522ZM13.9505 3.62257V6.53905H11.4205V3.62257H9.5206V10.9917H11.4205V7.91704H13.9505V10.9917H15.843V3.62257H13.9505ZM24.3914 9.61373H23.5373V3.62257H18.0243V4.25081C18.0243 6.05297 17.8973 8.37789 17.2299 9.61373H16.6373V12.6792H18.3804V10.9917H22.6285V12.6792H24.3715V9.61373H24.3914ZM37.3524 10.9894H39.4964L36.4585 7.02513L39.1353 3.62716H37.2329L34.551 7.02513V3.62257H32.6511V10.9917H34.551V7.37134L37.3524 10.9917V10.9894ZM28.2287 4.85153C29.1675 4.85153 29.4538 5.57377 29.4538 6.49319V6.63993H26.8118C26.8616 5.466 27.3098 4.85153 28.2287 4.85153ZM21.6548 9.61373H18.978C19.5059 8.504 19.6503 6.49319 19.6503 5.22067V4.99139H21.6548V9.61373ZM49.5613 0.804688V10.9917H51.4837V6.56656H55.0844V10.9917H57.0092V0.804688H55.0844V5.19087H51.4837V0.804688H49.5613ZM61.8201 3.47354C59.7359 3.47354 58.2841 4.83777 58.2841 7.31632C58.2841 9.79486 59.7359 11.1522 61.8201 11.1522C63.9043 11.1522 65.3535 9.77652 65.3535 7.31402C65.3535 4.85153 63.9043 3.485 61.8201 3.485V3.47354ZM61.8201 9.76276C60.7693 9.76276 60.2414 9.01759 60.2414 7.31632C60.2414 5.61504 60.7693 4.85153 61.8201 4.85153C62.8709 4.85153 63.3963 5.60128 63.3963 7.30256C63.3963 9.00384 62.8809 9.76276 61.8201 9.76276ZM69.7884 10.9917C71.6659 10.9917 72.7765 10.2626 72.7765 8.8571C72.7765 7.88494 72.139 7.33007 71.0758 7.15353C71.9324 6.92424 72.4752 6.37855 72.4752 5.4981C72.4752 4.23705 71.5663 3.62257 69.8133 3.62257H66.616V10.9917H69.7884ZM69.5394 4.93865C70.2291 4.93865 70.6101 5.20233 70.6101 5.76178C70.6101 6.27537 70.1943 6.58032 69.4796 6.58032H68.5209V4.93865H69.5394ZM69.5767 7.85742C70.3835 7.85742 70.8218 8.1211 70.8218 8.73558C70.8218 9.41196 70.3437 9.67563 69.5767 9.67563H68.5209V7.85742H69.5767ZM77.1192 3.47354C75.035 3.47354 73.5833 4.83777 73.5833 7.31632C73.5833 9.79486 75.0325 11.1522 77.1167 11.1522C79.201 11.1522 80.6527 9.77652 80.6527 7.31402C80.6527 4.85153 79.201 3.485 77.1167 3.485L77.1192 3.47354ZM77.1192 9.76276C76.0684 9.76276 75.5405 9.01759 75.5405 7.31632C75.5405 5.61504 76.0684 4.85153 77.1192 4.85153C78.1701 4.85153 78.6955 5.60128 78.6955 7.30256C78.6955 9.00384 78.1676 9.76276 77.1192 9.76276ZM85.3639 11.1385C86.2429 11.1385 86.858 10.9894 87.3236 10.6799V9.26293C86.7824 9.60857 86.1343 9.78389 85.476 9.76276C84.1239 9.76276 83.5661 8.79519 83.5661 7.27046C83.5661 5.66548 84.2484 4.85153 85.4959 4.85153C86.1379 4.8566 86.7676 5.01458 87.3236 5.31009V3.81517C86.9252 3.6134 86.223 3.46437 85.2843 3.46437C82.8689 3.46437 81.6089 5.06935 81.6089 7.30714C81.6064 9.77652 82.8315 11.1522 85.3615 11.1522L85.3639 11.1385ZM94.4702 4.99827V3.62257H88.1205V4.99827H90.3466V10.9917H92.2441V5.00056L94.4702 4.99827ZM95.5833 3.62257V10.9917H97.2268L100.155 6.43816V10.9917H102.003V3.62257H100.359L97.4285 8.17154V3.62257H95.5833Z" fill="black"/></g>
</svg>