<svg width="31" height="25" viewBox="0 0 31 25" fill="none" xmlns="http://www.w3.org/2000/svg">
<path d="M30.0666 3.44769H28.9451H28.789H28.2211H28.065L29.1722 0.409858L28.8032 0.537617L27.5398 1.00607C26.2054 1.48871 25.3821 1.75843 25.013 1.8578C23.8958 0.875065 22.4918 0.278163 21.009 0.155444C19.5261 0.032725 18.0432 0.390711 16.7796 1.17641C15.7959 1.74662 15.0111 2.60517 14.5313 3.63594C14.0514 4.66671 13.8997 5.81998 14.0966 6.93978V7.06754H13.9831C10.0775 6.55235 6.51965 4.55486 4.04625 1.48871L3.40745 0.594399L2.78285 1.58808C2.0179 2.97116 1.76649 4.58013 2.07308 6.13063C2.18532 6.75614 2.39614 7.35986 2.69768 7.91926L2.82544 8.14639L1.98791 7.83409V8.88456C1.94138 10.1967 2.31432 11.4896 3.05257 12.5754C3.29036 12.9402 3.56121 13.2823 3.86171 13.5975L4.07464 13.8104L3.5778 13.7252L3.97527 14.9318C4.23308 15.7631 4.65481 16.5343 5.21558 17.1999C5.77634 17.8655 6.46478 18.412 7.24023 18.8072L7.43897 18.8924L7.24023 18.9775C5.65034 19.6589 4.40114 20.0848 2.27182 20.7804L0.568359 21.334L2.14406 22.1999C3.82899 23.1302 5.64909 23.7912 7.53834 24.1589C13.6424 25.1242 19.136 23.875 22.5997 20.752C25.595 18.0548 27.0429 14.0091 26.7874 9.0549C26.7656 8.4198 26.9444 7.79397 27.2984 7.26627C27.6817 6.76943 28.4057 5.76155 29.0019 4.95241L30.0666 3.44769ZM26.759 5.34988L26.1202 6.23C25.5165 7.0494 25.2155 8.05271 25.2685 9.0691C25.4956 13.6117 24.2606 17.1321 21.5919 19.5454C18.7519 21.86 15.1589 23.0476 11.4989 22.8813C10.2533 22.8781 9.00985 22.7784 7.77966 22.5832C6.76736 22.4147 5.77701 22.1338 4.827 21.7457L4.57148 21.6463L4.827 21.5611C6.64103 20.9451 8.41428 20.2149 10.1361 19.375L12.8474 18.0974L9.8522 17.8987C9.07515 17.8712 8.31643 17.6553 7.64134 17.2695C6.96625 16.8837 6.39502 16.3397 5.97684 15.6842L5.87747 15.5422H6.04781C6.47518 15.5152 6.89858 15.4438 7.31121 15.3293L10.1503 14.5344L7.31121 13.8246C6.06504 13.5434 4.97625 12.7904 4.27338 11.7237C3.98423 11.2867 3.764 10.808 3.62039 10.3041V10.1338H3.77654C4.20606 10.2337 4.6427 10.3002 5.08252 10.3325L7.6661 10.6306L5.59356 8.98393C4.77432 8.37324 4.15394 7.53396 3.81043 6.57162C3.46691 5.60928 3.41561 4.56686 3.66297 3.57545V3.4051L3.79073 3.53286C5.94502 5.79347 8.68878 7.40629 11.7118 8.18898C12.671 8.43605 13.6491 8.60224 14.6361 8.68582H15.5588H15.8285C15.812 8.23758 15.7598 7.79138 15.6723 7.35145C15.4912 6.79555 15.423 6.20905 15.4717 5.62642C15.5205 5.04378 15.6852 4.47678 15.9563 3.95873C16.3694 3.34062 16.9371 2.84143 17.6029 2.51079C18.5687 1.90914 19.7018 1.63276 20.8361 1.72218C21.9704 1.81159 23.0462 2.2621 23.9057 3.00763C24.0795 3.1803 24.2951 3.30504 24.5314 3.36971C24.7677 3.43439 25.0168 3.4368 25.2543 3.37671C25.6518 3.27734 26.0067 3.16378 26.4325 3.02183L26.6313 3.00763L26.5603 3.20637L25.8505 5.23632H26.8726L26.759 5.34988Z" fill="#000106"/>
</svg>
