<svg width="178" height="32" viewBox="0 0 178 32" fill="none" xmlns="http://www.w3.org/2000/svg">
<g clip-path="url(#clip0_125_288)">
<path fill-rule="evenodd" clip-rule="evenodd" d="M19.4347 12.5643C17.0027 10.1325 16.8027 6.48746 16.7227 0H15.2773C15.1973 6.48479 14.9973 10.1298 12.5653 12.5643C10.1333 14.9961 6.488 15.1987 0 15.2787V16.7213C6.48533 16.8013 10.1307 17.0039 12.5653 19.4357C14.9973 21.8675 15.1973 25.5125 15.2773 32H16.7227C16.8027 25.5152 17.0027 21.8702 19.4347 19.4357C21.8667 17.0039 25.512 16.8013 32 16.7213V15.2787C25.512 15.1987 21.8667 14.9988 19.4347 12.5643Z" fill="white"/>
</g>
<path d="M55.2588 9.70312V22.5H53.5713V11.0918H47.2607V22.5H45.5645V9.70312H55.2588ZM62.0352 22.6758C61.373 22.6758 60.7725 22.5645 60.2334 22.3418C59.7002 22.1133 59.2402 21.7939 58.8535 21.3838C58.4727 20.9736 58.1797 20.4873 57.9746 19.9248C57.7695 19.3623 57.667 18.7471 57.667 18.0791V17.71C57.667 16.9365 57.7812 16.248 58.0098 15.6445C58.2383 15.0352 58.5488 14.5195 58.9414 14.0977C59.334 13.6758 59.7793 13.3564 60.2773 13.1396C60.7754 12.9229 61.291 12.8145 61.8242 12.8145C62.5039 12.8145 63.0898 12.9316 63.582 13.166C64.0801 13.4004 64.4873 13.7285 64.8037 14.1504C65.1201 14.5664 65.3545 15.0586 65.5068 15.627C65.6592 16.1895 65.7354 16.8047 65.7354 17.4727V18.2021H58.6338V16.875H64.1094V16.752C64.0859 16.3301 63.998 15.9199 63.8457 15.5215C63.6992 15.123 63.4648 14.7949 63.1426 14.5371C62.8203 14.2793 62.3809 14.1504 61.8242 14.1504C61.4551 14.1504 61.1152 14.2295 60.8047 14.3877C60.4941 14.54 60.2275 14.7686 60.0049 15.0732C59.7822 15.3779 59.6094 15.75 59.4863 16.1895C59.3633 16.6289 59.3018 17.1357 59.3018 17.71V18.0791C59.3018 18.5303 59.3633 18.9551 59.4863 19.3535C59.6152 19.7461 59.7998 20.0918 60.04 20.3906C60.2861 20.6895 60.582 20.9238 60.9277 21.0938C61.2793 21.2637 61.6777 21.3486 62.123 21.3486C62.6973 21.3486 63.1836 21.2314 63.582 20.9971C63.9805 20.7627 64.3291 20.4492 64.6279 20.0566L65.6123 20.8389C65.4072 21.1494 65.1465 21.4453 64.8301 21.7266C64.5137 22.0078 64.124 22.2363 63.6611 22.4121C63.2041 22.5879 62.6621 22.6758 62.0352 22.6758ZM69.2598 14.8184V26.1562H67.625V12.9902H69.1191L69.2598 14.8184ZM75.667 17.666V17.8506C75.667 18.542 75.585 19.1836 75.4209 19.7754C75.2568 20.3613 75.0166 20.8711 74.7002 21.3047C74.3896 21.7383 74.0059 22.0752 73.5488 22.3154C73.0918 22.5557 72.5674 22.6758 71.9756 22.6758C71.3721 22.6758 70.8389 22.5762 70.376 22.377C69.9131 22.1777 69.5205 21.8877 69.1982 21.5068C68.876 21.126 68.6182 20.6689 68.4248 20.1357C68.2373 19.6025 68.1084 19.002 68.0381 18.334V17.3496C68.1084 16.6465 68.2402 16.0166 68.4336 15.46C68.627 14.9033 68.8818 14.4287 69.1982 14.0361C69.5205 13.6377 69.9102 13.3359 70.3672 13.1309C70.8242 12.9199 71.3516 12.8145 71.9492 12.8145C72.5469 12.8145 73.0771 12.9316 73.54 13.166C74.0029 13.3945 74.3926 13.7227 74.709 14.1504C75.0254 14.5781 75.2627 15.0908 75.4209 15.6885C75.585 16.2803 75.667 16.9395 75.667 17.666ZM74.0322 17.8506V17.666C74.0322 17.1914 73.9824 16.7461 73.8828 16.3301C73.7832 15.9082 73.6279 15.5391 73.417 15.2227C73.2119 14.9004 72.9482 14.6484 72.626 14.4668C72.3037 14.2793 71.9199 14.1855 71.4746 14.1855C71.0645 14.1855 70.707 14.2559 70.4023 14.3965C70.1035 14.5371 69.8486 14.7275 69.6377 14.9678C69.4268 15.2021 69.2539 15.4717 69.1191 15.7764C68.9902 16.0752 68.8936 16.3857 68.8291 16.708V18.9844C68.9463 19.3945 69.1104 19.7812 69.3213 20.1445C69.5322 20.502 69.8135 20.792 70.165 21.0146C70.5166 21.2314 70.959 21.3398 71.4922 21.3398C71.9316 21.3398 72.3096 21.249 72.626 21.0674C72.9482 20.8799 73.2119 20.625 73.417 20.3027C73.6279 19.9805 73.7832 19.6113 73.8828 19.1953C73.9824 18.7734 74.0322 18.3252 74.0322 17.8506ZM81.6875 22.6758C81.0254 22.6758 80.4248 22.5645 79.8857 22.3418C79.3525 22.1133 78.8926 21.7939 78.5059 21.3838C78.125 20.9736 77.832 20.4873 77.627 19.9248C77.4219 19.3623 77.3193 18.7471 77.3193 18.0791V17.71C77.3193 16.9365 77.4336 16.248 77.6621 15.6445C77.8906 15.0352 78.2012 14.5195 78.5938 14.0977C78.9863 13.6758 79.4316 13.3564 79.9297 13.1396C80.4277 12.9229 80.9434 12.8145 81.4766 12.8145C82.1562 12.8145 82.7422 12.9316 83.2344 13.166C83.7324 13.4004 84.1396 13.7285 84.4561 14.1504C84.7725 14.5664 85.0068 15.0586 85.1592 15.627C85.3115 16.1895 85.3877 16.8047 85.3877 17.4727V18.2021H78.2861V16.875H83.7617V16.752C83.7383 16.3301 83.6504 15.9199 83.498 15.5215C83.3516 15.123 83.1172 14.7949 82.7949 14.5371C82.4727 14.2793 82.0332 14.1504 81.4766 14.1504C81.1074 14.1504 80.7676 14.2295 80.457 14.3877C80.1465 14.54 79.8799 14.7686 79.6572 15.0732C79.4346 15.3779 79.2617 15.75 79.1387 16.1895C79.0156 16.6289 78.9541 17.1357 78.9541 17.71V18.0791C78.9541 18.5303 79.0156 18.9551 79.1387 19.3535C79.2676 19.7461 79.4521 20.0918 79.6924 20.3906C79.9385 20.6895 80.2344 20.9238 80.5801 21.0938C80.9316 21.2637 81.3301 21.3486 81.7754 21.3486C82.3496 21.3486 82.8359 21.2314 83.2344 20.9971C83.6328 20.7627 83.9814 20.4492 84.2803 20.0566L85.2646 20.8389C85.0596 21.1494 84.7988 21.4453 84.4824 21.7266C84.166 22.0078 83.7764 22.2363 83.3135 22.4121C82.8564 22.5879 82.3145 22.6758 81.6875 22.6758ZM89.0439 19.9248L93.4297 12.9902H95.0645V22.5H93.4297V15.5654L89.0439 22.5H87.4268V12.9902H89.0439V19.9248ZM92.542 9.54492H93.8604C93.8604 10.002 93.7549 10.4092 93.5439 10.7666C93.333 11.1182 93.0312 11.3936 92.6387 11.5928C92.2461 11.792 91.7803 11.8916 91.2412 11.8916C90.4268 11.8916 89.7822 11.6748 89.3076 11.2412C88.8389 10.8018 88.6045 10.2363 88.6045 9.54492H89.9229C89.9229 9.89062 90.0225 10.1953 90.2217 10.459C90.4209 10.7227 90.7607 10.8545 91.2412 10.8545C91.71 10.8545 92.0439 10.7227 92.2432 10.459C92.4424 10.1953 92.542 9.89062 92.542 9.54492ZM101.551 12.9902V22.5H99.916V12.9902H101.551ZM104.741 12.9902V14.3086H96.7871V12.9902H104.741ZM108.099 19.9248L112.484 12.9902H114.119V22.5H112.484V15.5654L108.099 22.5H106.481V12.9902H108.099V19.9248ZM125.659 18.3164H122.539L122.521 17.0156H125.07C125.574 17.0156 125.993 16.9658 126.327 16.8662C126.667 16.7666 126.922 16.6172 127.092 16.418C127.262 16.2188 127.347 15.9727 127.347 15.6797C127.347 15.4512 127.297 15.252 127.197 15.082C127.104 14.9062 126.96 14.7627 126.767 14.6514C126.573 14.5342 126.333 14.4492 126.046 14.3965C125.765 14.3379 125.434 14.3086 125.053 14.3086H122.97V22.5H121.344V12.9902H125.053C125.656 12.9902 126.198 13.043 126.679 13.1484C127.165 13.2539 127.578 13.415 127.918 13.6318C128.264 13.8428 128.527 14.1123 128.709 14.4404C128.891 14.7686 128.981 15.1553 128.981 15.6006C128.981 15.8877 128.923 16.1602 128.806 16.418C128.688 16.6758 128.516 16.9043 128.287 17.1035C128.059 17.3027 127.777 17.4668 127.443 17.5957C127.109 17.7188 126.726 17.7979 126.292 17.833L125.659 18.3164ZM125.659 22.5H121.95L122.759 21.1816H125.659C126.11 21.1816 126.485 21.126 126.784 21.0146C127.083 20.8975 127.306 20.7334 127.452 20.5225C127.604 20.3057 127.681 20.0479 127.681 19.749C127.681 19.4502 127.604 19.1953 127.452 18.9844C127.306 18.7676 127.083 18.6035 126.784 18.4922C126.485 18.375 126.11 18.3164 125.659 18.3164H123.189L123.207 17.0156H126.292L126.881 17.5078C127.402 17.5488 127.845 17.6777 128.208 17.8945C128.571 18.1113 128.847 18.3867 129.034 18.7207C129.222 19.0488 129.315 19.4062 129.315 19.793C129.315 20.2383 129.23 20.6309 129.061 20.9707C128.896 21.3105 128.656 21.5947 128.34 21.8232C128.023 22.0459 127.64 22.2158 127.188 22.333C126.737 22.4443 126.228 22.5 125.659 22.5ZM146.015 20.4434V22.5H136.795V20.4434H146.015ZM137.577 20.4434V25.6377H135.099L134.958 20.4434H137.577ZM147.913 20.4434L147.685 25.6465H145.268V20.4434H147.913ZM144.564 9.70312V11.7686H138.403V9.70312H144.564ZM146.445 9.70312V22.5H143.817V9.70312H146.445ZM138.078 9.70312H140.715L140.372 14.915C140.319 15.7764 140.226 16.5381 140.091 17.2002C139.962 17.8564 139.804 18.4336 139.616 18.9316C139.435 19.4297 139.232 19.8662 139.01 20.2412C138.787 20.6104 138.553 20.9326 138.307 21.208C138.061 21.4775 137.812 21.7178 137.56 21.9287C137.308 22.1338 137.062 22.3242 136.821 22.5H135.31V20.4434H135.898C136.068 20.3027 136.247 20.1094 136.435 19.8633C136.628 19.6172 136.81 19.2861 136.979 18.8701C137.155 18.4482 137.308 17.915 137.437 17.2705C137.571 16.626 137.671 15.8408 137.735 14.915L138.078 9.70312ZM153.354 17.9648H151.473V16.8311H152.817C153.134 16.8311 153.386 16.7871 153.573 16.6992C153.767 16.6113 153.904 16.4883 153.986 16.3301C154.074 16.166 154.118 15.9814 154.118 15.7764C154.118 15.5947 154.08 15.4219 154.004 15.2578C153.934 15.0879 153.805 14.9502 153.617 14.8447C153.436 14.7334 153.178 14.6777 152.844 14.6777C152.568 14.6777 152.322 14.7188 152.105 14.8008C151.895 14.8828 151.728 15.0029 151.604 15.1611C151.487 15.3135 151.429 15.498 151.429 15.7148H148.889C148.889 15.1113 149.062 14.5957 149.407 14.168C149.753 13.7344 150.216 13.4033 150.796 13.1748C151.376 12.9404 152.012 12.8232 152.703 12.8232C153.307 12.8232 153.852 12.8848 154.338 13.0078C154.824 13.125 155.24 13.3008 155.586 13.5352C155.932 13.7695 156.195 14.0596 156.377 14.4053C156.564 14.7451 156.658 15.1406 156.658 15.5918C156.658 15.9141 156.582 16.2188 156.43 16.5059C156.277 16.793 156.058 17.0479 155.771 17.2705C155.483 17.4873 155.135 17.6572 154.725 17.7803C154.32 17.9033 153.863 17.9648 153.354 17.9648ZM151.473 17.332H153.354C153.922 17.332 154.42 17.3877 154.848 17.499C155.281 17.6045 155.645 17.7627 155.938 17.9736C156.23 18.1846 156.45 18.4453 156.597 18.7559C156.749 19.0605 156.825 19.4121 156.825 19.8105C156.825 20.2617 156.726 20.666 156.526 21.0234C156.327 21.375 156.043 21.6738 155.674 21.9199C155.305 22.166 154.868 22.3535 154.364 22.4824C153.86 22.6113 153.307 22.6758 152.703 22.6758C152.059 22.6758 151.432 22.5703 150.822 22.3594C150.213 22.1484 149.712 21.8232 149.319 21.3838C148.933 20.9443 148.739 20.3789 148.739 19.6875H151.279C151.279 19.8867 151.338 20.0742 151.455 20.25C151.572 20.4258 151.748 20.5664 151.982 20.6719C152.217 20.7715 152.507 20.8213 152.853 20.8213C153.198 20.8213 153.477 20.7656 153.688 20.6543C153.898 20.543 154.051 20.3965 154.145 20.2148C154.244 20.0273 154.294 19.834 154.294 19.6348C154.294 19.3535 154.238 19.125 154.127 18.9492C154.021 18.7734 153.857 18.6445 153.635 18.5625C153.418 18.4805 153.146 18.4395 152.817 18.4395H151.473V17.332ZM162.758 22.6758C162.02 22.6758 161.357 22.5586 160.771 22.3242C160.186 22.084 159.688 21.7529 159.277 21.3311C158.873 20.9092 158.562 20.4199 158.346 19.8633C158.129 19.3008 158.021 18.7031 158.021 18.0703V17.7188C158.021 16.998 158.123 16.3389 158.328 15.7412C158.533 15.1436 158.826 14.625 159.207 14.1855C159.594 13.7461 160.062 13.4092 160.613 13.1748C161.164 12.9346 161.785 12.8145 162.477 12.8145C163.15 12.8145 163.748 12.9258 164.27 13.1484C164.791 13.3711 165.228 13.6875 165.579 14.0977C165.937 14.5078 166.206 15 166.388 15.5742C166.569 16.1426 166.66 16.7754 166.66 17.4727V18.5273H159.102V16.8398H164.173V16.6465C164.173 16.2949 164.108 15.9814 163.979 15.7061C163.856 15.4248 163.669 15.2021 163.417 15.0381C163.165 14.874 162.843 14.792 162.45 14.792C162.116 14.792 161.829 14.8652 161.589 15.0117C161.349 15.1582 161.152 15.3633 161 15.627C160.854 15.8906 160.742 16.2012 160.666 16.5586C160.596 16.9102 160.561 17.2969 160.561 17.7188V18.0703C160.561 18.4512 160.613 18.8027 160.719 19.125C160.83 19.4473 160.985 19.7256 161.185 19.96C161.39 20.1943 161.636 20.376 161.923 20.5049C162.216 20.6338 162.547 20.6982 162.916 20.6982C163.373 20.6982 163.798 20.6104 164.19 20.4346C164.589 20.2529 164.932 19.9805 165.219 19.6172L166.449 20.9531C166.25 21.2402 165.978 21.5156 165.632 21.7793C165.292 22.043 164.882 22.2598 164.401 22.4297C163.921 22.5938 163.373 22.6758 162.758 22.6758ZM174.614 16.8311V18.7998H169.78V16.8311H174.614ZM170.624 12.9902V22.5H168.093V12.9902H170.624ZM176.328 12.9902V22.5H173.788V12.9902H176.328Z" fill="white"/>
<defs>
<clipPath id="clip0_125_288">
<rect width="32" height="32" fill="white"/>
</clipPath>
</defs>
</svg>
