<svg width="29" height="23" viewBox="0 0 29 23" fill="none" xmlns="http://www.w3.org/2000/svg">
<path d="M18.1189 4.76376H20.1334C20.565 4.76376 20.9162 4.41565 20.9162 3.98774V0.778549C20.9162 0.35064 20.565 0.00252567 20.1334 0.00252567H17.367C17.3405 0.00141266 17.2945 0 17.2299 0C16.7079 0 14.8929 0.102097 13.4528 1.4154C11.881 2.84917 12.0314 4.56423 12.0976 4.98709V7.07783H10.0953C9.66368 7.07783 9.3125 7.42595 9.3125 7.85385V11.3054C9.3125 11.7334 9.66364 12.0815 10.0953 12.0815H11.9817V21.1417C11.9817 21.5696 12.3329 21.9177 12.7645 21.9177H16.7098C17.1414 21.9177 17.4926 21.5696 17.4926 21.1417V12.1263H19.7271C20.125 12.1263 20.4593 11.8308 20.5047 11.4389L20.911 7.94272C20.9365 7.72308 20.8661 7.50244 20.7177 7.33742C20.5693 7.17248 20.3564 7.07787 20.1335 7.07787H17.4927V5.32288C17.4927 4.96025 17.5924 4.76376 18.1189 4.76376ZM17.0523 7.95111H20.0234L19.6397 11.2531H17.0522C16.809 11.2531 16.6118 11.4485 16.6118 11.6897V21.0445H12.8625V11.6449C12.8625 11.4038 12.6653 11.2083 12.4221 11.2083H10.1932V7.95103H12.538C12.7812 7.95103 12.9784 7.75557 12.9784 7.51443V4.9516C12.9784 4.92656 12.9762 4.90152 12.9719 4.87682C12.9255 4.61248 12.7595 3.23449 14.0492 2.05804C15.2546 0.958685 16.7886 0.87324 17.2299 0.87324C17.2918 0.87324 17.3287 0.874867 17.3354 0.875209C17.3426 0.875552 17.3499 0.875723 17.3572 0.875723H20.0354V3.8906H18.1189C17.1752 3.8906 16.6119 4.42605 16.6119 5.32288V7.51447C16.6119 7.75565 16.8091 7.95111 17.0523 7.95111Z" fill="#000106"/>
</svg>
