<svg width="14" height="9" viewBox="0 0 14 9" fill="none" xmlns="http://www.w3.org/2000/svg">
<path d="M7.00007 9C4.86757 9 2.84957 8.0965 1.31657 6.456C1.12807 6.2545 1.13907 5.938 1.34057 5.7495C1.54257 5.561 1.85857 5.572 2.04757 5.7735C3.38907 7.2095 5.14757 8 7.00007 8C9.38157 8 11.5746 6.6975 12.9201 4.5C11.5751 2.3025 9.38157 1 7.00007 1C4.53107 1 2.26407 2.4005 0.935068 4.7465C0.799068 4.987 0.493068 5.072 0.253568 4.935C0.0130676 4.799 -0.0709323 4.494 0.0650677 4.2535C1.57357 1.59 4.16657 0 7.00007 0C9.83407 0 12.4266 1.59 13.9351 4.2535C14.0216 4.4065 14.0216 4.5935 13.9351 4.746C12.4266 7.4095 9.83407 9 7.00007 9Z" fill="#000106"/>
<path d="M7 7C5.6215 7 4.5 5.8785 4.5 4.5C4.5 3.1215 5.6215 2 7 2C8.3785 2 9.5 3.1215 9.5 4.5C9.5 5.8785 8.3785 7 7 7ZM7 3C6.173 3 5.5 3.673 5.5 4.5C5.5 5.327 6.173 6 7 6C7.827 6 8.5 5.327 8.5 4.5C8.5 3.673 7.827 3 7 3Z" fill="#000106"/>
</svg>
