<svg width="14" height="12" viewBox="0 0 14 12" fill="none" xmlns="http://www.w3.org/2000/svg">
<path d="M10.2656 0C11.4323 0 12.3463 0.322837 13.0078 0.968785C13.6693 1.61449 14 2.51018 14 3.65609C14 4.80718 13.4037 5.97905 12.211 7.17156L7.34376 11.8592C7.25004 11.953 7.13538 12 6.99999 12C6.86459 12 6.75002 11.953 6.65624 11.8592L1.7813 7.1561C1.72923 7.1144 1.65759 7.04662 1.56647 6.95287C1.47543 6.85913 1.33078 6.68862 1.13286 6.44123C0.934939 6.1938 0.757813 5.93992 0.60162 5.67958C0.4454 5.41922 0.305982 5.10407 0.183638 4.73428C0.0612949 4.36468 0 4.00517 0 3.6562C0 2.51037 0.330746 1.6146 0.992184 0.968785C1.65362 0.322919 2.56763 0 3.73434 0C4.05723 0 4.38672 0.0560136 4.72261 0.167904C5.05853 0.279931 5.37105 0.430924 5.66012 0.621102C5.94924 0.811252 6.19787 0.989609 6.40627 1.15623C6.61454 1.3229 6.81246 1.50002 7.00001 1.68747C7.18748 1.50002 7.38546 1.3229 7.5937 1.15623C7.80218 0.989609 8.0507 0.811143 8.33988 0.621102C8.62868 0.431006 8.94126 0.279903 9.27726 0.167904C9.61312 0.0559862 9.94266 0 10.2656 0Z" fill="#000106"/>
</svg>
