<svg width="97" height="22" viewBox="0 0 97 22" fill="none" xmlns="http://www.w3.org/2000/svg">
<path d="M11 22C17.0751 22 22 17.0751 22 11C22 4.92487 17.0751 0 11 0C4.92487 0 0 4.92487 0 11C0 17.0751 4.92487 22 11 22Z" fill="url(#paint0_linear_4051_31467)"/>
<path fill-rule="evenodd" clip-rule="evenodd" d="M4.97747 10.883C8.1842 9.48586 10.3225 8.56479 11.3924 8.11978C14.4472 6.84918 15.082 6.62846 15.4957 6.62117C15.5867 6.61957 15.7902 6.64212 15.922 6.74906C16.0333 6.83936 16.0639 6.96134 16.0785 7.04695C16.0932 7.13257 16.1114 7.3276 16.0969 7.47999C15.9314 9.21935 15.2151 13.4403 14.8507 15.3884C14.6965 16.2127 14.3929 16.4891 14.0989 16.5162C13.4602 16.575 12.9751 16.094 12.3564 15.6885C11.3882 15.0538 10.8413 14.6588 9.90155 14.0395C8.81551 13.3238 9.51954 12.9304 10.1385 12.2876C10.3005 12.1194 13.115 9.55933 13.1695 9.3271C13.1763 9.29806 13.1826 9.18979 13.1183 9.13262C13.054 9.07545 12.959 9.095 12.8905 9.11055C12.7934 9.13259 11.2468 10.1548 8.25066 12.1773C7.81166 12.4788 7.41402 12.6257 7.05775 12.618C6.665 12.6095 5.90949 12.3959 5.34785 12.2133C4.65897 11.9894 4.11147 11.871 4.15914 11.4907C4.18398 11.2926 4.45675 11.0901 4.97747 10.883Z" fill="white"/>
<path d="M35.8097 4.57085V14.9602H33.4623V4.57085H35.8097ZM39.3269 4.57085V6.24771H30V4.57085H39.3269Z" fill="black"/>
<path d="M43.6999 15.103C43.0404 15.103 42.449 15.0078 41.9256 14.8175C41.4022 14.6225 40.9573 14.3537 40.5909 14.0112C40.2298 13.6687 39.9524 13.2715 39.7587 12.8196C39.5651 12.3629 39.4682 11.8777 39.4682 11.3639V11.0785C39.4682 10.4934 39.5598 9.95821 39.743 9.47299C39.9262 8.98777 40.1879 8.56677 40.5281 8.20999C40.8736 7.85321 41.2923 7.57968 41.7843 7.3894C42.2763 7.19436 42.8311 7.09684 43.4487 7.09684C44.0506 7.09684 44.5844 7.18722 45.0503 7.36799C45.5161 7.54876 45.906 7.80564 46.2201 8.13863C46.5393 8.47163 46.7801 8.87122 46.9423 9.33741C47.1046 9.79884 47.1857 10.3126 47.1857 10.8787V11.735H40.4339V10.3649H44.9639V10.208C44.9639 9.92253 44.9063 9.66803 44.7912 9.44444C44.6813 9.21611 44.5138 9.03534 44.2887 8.90214C44.0637 8.76894 43.7758 8.70234 43.4251 8.70234C43.1268 8.70234 42.8703 8.76181 42.6557 8.88073C42.4411 8.99966 42.2658 9.16616 42.1297 9.38022C41.9989 9.59429 41.8994 9.84642 41.8314 10.1366C41.7686 10.422 41.7372 10.736 41.7372 11.0785V11.3639C41.7372 11.6731 41.7843 11.9585 41.8785 12.2202C41.9779 12.4818 42.1166 12.7078 42.2946 12.8981C42.4778 13.0883 42.6976 13.2358 42.9541 13.3405C43.2158 13.4451 43.5115 13.4975 43.8412 13.4975C44.2495 13.4975 44.6289 13.4261 44.9796 13.2834C45.3355 13.1359 45.6417 12.9147 45.8982 12.6198L46.9973 13.7044C46.8193 13.9375 46.576 14.1611 46.2672 14.3751C45.9636 14.5892 45.5972 14.7652 45.168 14.9032C44.7388 15.0364 44.2495 15.103 43.6999 15.103Z" fill="black"/>
<path d="M50.86 4V14.9602H48.591V4H50.86Z" fill="black"/>
<path d="M56.6383 15.103C55.9788 15.103 55.3874 15.0078 54.864 14.8175C54.3406 14.6225 53.8957 14.3537 53.5293 14.0112C53.1682 13.6687 52.8908 13.2715 52.6971 12.8196C52.5034 12.3629 52.4066 11.8777 52.4066 11.3639V11.0785C52.4066 10.4934 52.4982 9.95821 52.6814 9.47299C52.8646 8.98777 53.1263 8.56677 53.4665 8.20999C53.8119 7.85321 54.2306 7.57968 54.7226 7.3894C55.2146 7.19436 55.7694 7.09684 56.387 7.09684C56.9889 7.09684 57.5228 7.18722 57.9886 7.36799C58.4545 7.54876 58.8444 7.80564 59.1584 8.13863C59.4777 8.47163 59.7185 8.87122 59.8807 9.33741C60.043 9.79884 60.1241 10.3126 60.1241 10.8787V11.735H53.3723V10.3649H57.9023V10.208C57.9023 9.92253 57.8447 9.66803 57.7296 9.44444C57.6196 9.21611 57.4522 9.03534 57.2271 8.90214C57.002 8.76894 56.7142 8.70234 56.3635 8.70234C56.0652 8.70234 55.8087 8.76181 55.5941 8.88073C55.3795 8.99966 55.2042 9.16616 55.0681 9.38022C54.9372 9.59429 54.8378 9.84642 54.7697 10.1366C54.7069 10.422 54.6755 10.736 54.6755 11.0785V11.3639C54.6755 11.6731 54.7226 11.9585 54.8168 12.2202C54.9163 12.4818 55.055 12.7078 55.233 12.8981C55.4161 13.0883 55.636 13.2358 55.8924 13.3405C56.1541 13.4451 56.4498 13.4975 56.7796 13.4975C57.1878 13.4975 57.5673 13.4261 57.918 13.2834C58.2739 13.1359 58.5801 12.9147 58.8365 12.6198L59.9357 13.7044C59.7577 13.9375 59.5143 14.1611 59.2055 14.3751C58.902 14.5892 58.5356 14.7652 58.1064 14.9032C57.6772 15.0364 57.1878 15.103 56.6383 15.103Z" fill="black"/>
<path d="M66.7895 7.23955H68.8386V14.7034C68.8386 15.4074 68.6659 16.0044 68.3205 16.4944C67.9803 16.9891 67.504 17.3626 66.8916 17.6147C66.2792 17.8716 65.5674 18 64.7561 18C64.4002 18 64.0234 17.9572 63.6256 17.8716C63.2331 17.7859 62.8562 17.6527 62.4951 17.472C62.1392 17.2912 61.8408 17.0629 61.6001 16.787L62.5971 15.5739C62.8588 15.8498 63.1624 16.0639 63.5079 16.2161C63.8533 16.3731 64.2354 16.4516 64.6541 16.4516C65.0623 16.4516 65.4078 16.3826 65.6904 16.2446C65.973 16.1115 66.1903 15.914 66.342 15.6524C66.4938 15.3955 66.5697 15.0839 66.5697 14.7176V9.02345L66.7895 7.23955ZM61.0741 11.1927V11.0428C61.0741 10.4529 61.1526 9.91777 61.3096 9.43731C61.4718 8.95209 61.6995 8.53585 61.9926 8.18858C62.291 7.84132 62.6521 7.57255 63.076 7.38226C63.5 7.19198 63.9789 7.09684 64.5128 7.09684C65.078 7.09684 65.5517 7.19198 65.9338 7.38226C66.3159 7.57255 66.6299 7.8437 66.8759 8.19572C67.1219 8.54298 67.3129 8.95447 67.449 9.43017C67.5903 9.90112 67.7003 10.4173 67.7788 10.9786V11.3068C67.7003 11.8444 67.5825 12.3439 67.4255 12.8053C67.2685 13.2667 67.0617 13.6711 66.8052 14.0183C66.5488 14.3609 66.2295 14.6273 65.8474 14.8175C65.4706 15.0078 65.0205 15.103 64.4971 15.103C63.9737 15.103 63.5 15.0054 63.076 14.8104C62.6573 14.6154 62.2988 14.3418 62.0005 13.9898C61.7021 13.6378 61.4718 13.2239 61.3096 12.7482C61.1526 12.2725 61.0741 11.754 61.0741 11.1927ZM63.3351 11.0428V11.1927C63.3351 11.5114 63.3691 11.8087 63.4372 12.0846C63.5052 12.3605 63.6099 12.6055 63.7512 12.8196C63.8978 13.0289 64.0784 13.193 64.2929 13.3119C64.5128 13.4261 64.7719 13.4832 65.0702 13.4832C65.4837 13.4832 65.8213 13.4047 66.083 13.2477C66.3447 13.086 66.5409 12.8648 66.6718 12.5841C66.8026 12.3034 66.8785 11.98 66.8995 11.6137V10.6789C66.889 10.3792 66.8445 10.1104 66.766 9.87258C66.6875 9.62997 66.5776 9.42304 66.4363 9.25178C66.2949 9.08053 66.1117 8.94733 65.8867 8.85219C65.6616 8.75705 65.3947 8.70948 65.0859 8.70948C64.7876 8.70948 64.5285 8.77132 64.3086 8.89501C64.0941 9.01393 63.9135 9.17805 63.7669 9.38736C63.6256 9.59667 63.5183 9.84404 63.445 10.1295C63.3718 10.4101 63.3351 10.7146 63.3351 11.0428Z" fill="black"/>
<path d="M72.8583 8.92355V14.9602H70.5973V7.23955H72.7249L72.8583 8.92355ZM75.4177 7.1896L75.3785 9.0948C75.2686 9.08053 75.1351 9.06864 74.9781 9.05912C74.8263 9.04485 74.6876 9.03772 74.562 9.03772C74.2427 9.03772 73.9653 9.07577 73.7298 9.15189C73.4995 9.22324 73.3058 9.33028 73.1488 9.47299C72.997 9.6157 72.8819 9.78933 72.8034 9.99388C72.7301 10.1984 72.6882 10.4315 72.6778 10.6932L72.2224 10.5647C72.2224 10.0652 72.2774 9.60618 72.3873 9.18756C72.4972 8.76419 72.6568 8.39551 72.8662 8.08155C73.0808 7.76758 73.3425 7.52497 73.6513 7.35372C73.9601 7.18247 74.3134 7.09684 74.7112 7.09684C74.8368 7.09684 74.965 7.10635 75.0959 7.12538C75.2267 7.13965 75.334 7.16106 75.4177 7.1896Z" fill="black"/>
<path d="M80.8035 13.2192V9.77982C80.8035 9.53245 80.759 9.32076 80.67 9.14475C80.581 8.96398 80.4423 8.82365 80.2539 8.72375C80.0707 8.62385 79.8326 8.5739 79.5395 8.5739C79.2883 8.5739 79.071 8.61434 78.8879 8.69521C78.7047 8.77132 78.5634 8.88311 78.4639 9.03058C78.3645 9.17329 78.3147 9.34217 78.3147 9.53721H76.0537C76.0537 9.20897 76.1374 8.89738 76.3049 8.60245C76.4724 8.30751 76.7158 8.04825 77.035 7.82467C77.3543 7.59633 77.7338 7.41794 78.1734 7.2895C78.6183 7.16106 79.1155 7.09684 79.6651 7.09684C80.3246 7.09684 80.9108 7.19674 81.4237 7.39653C81.9366 7.59633 82.3397 7.89602 82.6328 8.29562C82.9311 8.69521 83.0803 9.1947 83.0803 9.79409V13.0979C83.0803 13.5212 83.1091 13.8685 83.1666 14.1397C83.2242 14.406 83.3079 14.6391 83.4179 14.8389V14.9602H81.1332C81.0233 14.7509 80.9396 14.4893 80.882 14.1753C80.8297 13.8566 80.8035 13.5379 80.8035 13.2192ZM81.1018 10.2579L81.1175 11.421H79.8535C79.5552 11.421 79.2961 11.4519 79.0763 11.5138C78.8565 11.5756 78.6759 11.6636 78.5346 11.7778C78.3932 11.8872 78.2886 12.0156 78.2205 12.1631C78.1577 12.3106 78.1263 12.4723 78.1263 12.6483C78.1263 12.8243 78.1708 12.9837 78.2598 13.1264C78.3488 13.2644 78.477 13.3738 78.6445 13.4546C78.812 13.5308 79.0082 13.5688 79.2333 13.5688C79.5735 13.5688 79.8692 13.507 80.1205 13.3833C80.3717 13.2596 80.5653 13.1074 80.7014 12.9266C80.8427 12.7458 80.916 12.5746 80.9213 12.4128L81.5179 13.2834C81.4342 13.4784 81.319 13.6806 81.1725 13.8899C81.0312 14.0992 80.8506 14.2966 80.6308 14.4822C80.4109 14.6629 80.1466 14.8128 79.8378 14.9317C79.529 15.0459 79.1626 15.103 78.7387 15.103C78.1996 15.103 77.7102 15.0054 77.2706 14.8104C76.8361 14.6106 76.4907 14.3371 76.2342 13.9898C75.983 13.6378 75.8574 13.2382 75.8574 12.791C75.8574 12.3867 75.9411 12.0275 76.1086 11.7136C76.2761 11.3996 76.5221 11.1356 76.8466 10.9215C77.1764 10.7027 77.5872 10.5386 78.0792 10.4292C78.5712 10.315 79.1417 10.2579 79.7907 10.2579H81.1018Z" fill="black"/>
<path d="M87.0842 8.83792V14.9602H84.8153V7.23955H86.9429L87.0842 8.83792ZM86.7702 10.8287H86.1421C86.1421 10.2912 86.2128 9.79647 86.3541 9.34455C86.5007 8.88787 86.7126 8.49303 86.99 8.16004C87.2727 7.82229 87.6207 7.56065 88.0342 7.37513C88.4477 7.1896 88.9266 7.09684 89.4709 7.09684C89.8478 7.09684 90.1932 7.14917 90.5073 7.25382C90.8213 7.35372 91.0909 7.51308 91.3159 7.73191C91.5462 7.94597 91.7242 8.22664 91.8498 8.5739C91.9754 8.91641 92.0382 9.3279 92.0382 9.80836V14.9602H89.7771V10.0367C89.7771 9.68468 89.7248 9.41352 89.6201 9.22324C89.5154 9.03296 89.3663 8.89976 89.1726 8.82365C88.9842 8.74754 88.7565 8.70948 88.4896 8.70948C88.1965 8.70948 87.94 8.76419 87.7202 8.8736C87.5056 8.98301 87.3276 9.13524 87.1863 9.33028C87.045 9.52056 86.9403 9.74414 86.8723 10.001C86.8042 10.2579 86.7702 10.5338 86.7702 10.8287ZM91.8262 10.5933L91.0176 10.686C91.0176 10.1818 91.0856 9.71322 91.2217 9.28033C91.363 8.84743 91.5698 8.46687 91.8419 8.13863C92.1193 7.8104 92.4622 7.5559 92.8704 7.37513C93.2786 7.1896 93.7497 7.09684 94.2836 7.09684C94.6918 7.09684 95.0634 7.15155 95.3984 7.26096C95.7334 7.36561 96.0186 7.53449 96.2542 7.76758C96.4949 7.99592 96.6781 8.29562 96.8037 8.66667C96.9346 9.03772 97 9.49201 97 10.0296V14.9602H94.7311V10.0296C94.7311 9.67278 94.6787 9.40163 94.5741 9.21611C94.4746 9.02582 94.3281 8.89501 94.1344 8.82365C93.946 8.74754 93.7209 8.70948 93.4592 8.70948C93.1871 8.70948 92.9489 8.75943 92.7448 8.85933C92.5407 8.95447 92.3706 9.08767 92.2345 9.25892C92.0984 9.43017 91.9963 9.62997 91.9283 9.85831C91.8602 10.0819 91.8262 10.3269 91.8262 10.5933Z" fill="black"/>
<defs>
<linearGradient id="paint0_linear_4051_31467" x1="11" y1="0" x2="11" y2="21.8368" gradientUnits="userSpaceOnUse">
<stop stop-color="#2AABEE"/>
<stop offset="1" stop-color="#229ED9"/>
</linearGradient>
</defs>
</svg>
