<svg width="98" height="16" viewBox="0 0 98 16" fill="none" xmlns="http://www.w3.org/2000/svg">
<g clip-path="url(#clip0_4051_31476)">
<path d="M-0.533203 7.78183C-0.533203 3.87439 -0.533203 1.92094 0.736326 0.707052C2.00586 -0.506836 4.04885 -0.506836 8.13539 -0.506836H8.69465C12.7812 -0.506836 14.8242 -0.506836 16.0937 0.707052C17.3632 1.92094 17.3632 3.87439 17.3632 7.78183V8.31658C17.3632 12.224 17.3632 14.1775 16.0937 15.3914C14.8242 16.6052 12.7812 16.6052 8.69465 16.6052H8.13539C4.04885 16.6052 2.00586 16.6052 0.736326 15.3914C-0.533203 14.1775 -0.533203 12.224 -0.533203 8.31658V7.78183Z" fill="#2787F5"/>
<path fill-rule="evenodd" clip-rule="evenodd" d="M14.2308 5.30945C14.3158 5.03833 14.2308 4.83887 13.8253 4.83887H12.4853C12.1442 4.83887 11.9876 5.01106 11.9026 5.20089C11.9026 5.20089 11.2208 6.78857 10.2556 7.81958C9.94349 8.11797 9.80143 8.21316 9.63142 8.21316C9.54585 8.21316 9.42281 8.11797 9.42281 7.84685V5.30945C9.42281 4.98379 9.32382 4.83887 9.03971 4.83887H6.93409C6.72157 4.83887 6.59294 4.9902 6.59294 5.13298C6.59294 5.44207 7.07614 5.51266 7.12591 6.38109V8.26716C7.12591 8.68053 7.04762 8.75539 6.87704 8.75539C6.42292 8.75539 5.31781 7.1613 4.66236 5.33672C4.53428 4.98218 4.40565 4.83887 4.06338 4.83887H2.72283C2.34029 4.83887 2.26367 5.01106 2.26367 5.20089C2.26367 5.53993 2.71779 7.22226 4.37881 9.44736C5.48615 10.9671 7.0465 11.7906 8.46535 11.7906C9.31711 11.7906 9.42281 11.6078 9.42281 11.2928V10.1436C9.42281 9.77784 9.50335 9.70511 9.77291 9.70511C9.97201 9.70511 10.3126 9.79977 11.1073 10.5324C12.0161 11.4013 12.166 11.7906 12.6772 11.7906H14.0172C14.4003 11.7906 14.5915 11.6078 14.4814 11.2468C14.3606 10.8869 13.9266 10.3645 13.3511 9.74576C13.0385 9.39282 12.5703 9.01315 12.4283 8.82331C12.2298 8.57946 12.2862 8.47037 12.4283 8.2538C12.4283 8.2538 14.0608 6.05596 14.2314 5.30945H14.2308Z" fill="white"/>
<path d="M30.0275 7.90228C30.7059 7.59961 31.1426 7.09481 31.1426 6.31728C31.1426 5.13547 30.0129 4.29966 28.3855 4.29966H24.6328V11.7921H28.551C30.2383 11.7921 31.4139 10.9135 31.4139 9.71723C31.4181 9.31222 31.2854 8.91674 31.0356 8.58964C30.7858 8.26253 30.4322 8.02127 30.0275 7.90175V7.90228ZM26.3665 5.66862H28.3855C28.9884 5.66862 29.41 6.01461 29.41 6.49C29.41 6.96593 28.9884 7.29694 28.3855 7.29694H26.3665V5.66862ZM28.5516 10.4236H26.3665V8.59372H28.5516C29.2294 8.59372 29.6813 8.96804 29.6813 9.51563C29.6813 10.0632 29.2294 10.4236 28.5516 10.4236ZM37.8589 11.7921H40.1339L36.5323 7.90121L39.8325 4.29912H37.7688L35.1459 7.20978H34.7242V4.30019H32.9916V11.7921H34.7242V8.80976H35.1464L37.8589 11.7921ZM44.5572 11.9359C47.0134 11.9359 48.7466 10.322 48.7466 8.0456C48.7466 5.76916 47.0134 4.15527 44.5577 4.15527C42.1014 4.15527 40.3683 5.76916 40.3683 8.0456C40.3683 10.322 42.1014 11.9359 44.5572 11.9359ZM44.5572 10.4226C43.1411 10.4226 42.1764 9.45734 42.1764 8.0456C42.1764 6.63385 43.1411 5.66809 44.5572 5.66809C45.9738 5.66809 46.9385 6.63332 46.9385 8.0456C46.9385 9.45734 45.9738 10.4231 44.5572 10.4231V10.4226ZM55.4969 4.29966V7.25309H51.9859V4.29966H50.2533V11.7921H51.9859V8.76644H55.4969V11.7921H57.2301V4.30019L55.4969 4.29966ZM61.1449 11.7921H62.8775V5.81354H65.59V4.30019H58.4325V5.81354H61.1449V11.7921ZM69.6944 4.15581C68.1721 4.15581 66.831 4.905 66.4389 6.20177L68.0367 6.46113C68.2778 6.00017 68.8203 5.56809 69.6038 5.56809C70.5529 5.56809 71.1105 6.21621 71.186 7.19587H69.4981C67.1928 7.19587 66.0474 8.1611 66.0474 9.54451C66.0474 10.9424 67.1777 11.9365 68.775 11.9365C70.0557 11.9365 70.9147 11.2306 71.2917 10.6108L71.6529 11.7926H72.9342V7.58518C72.9342 5.40927 71.6982 4.15581 69.6944 4.15581ZM69.1816 10.5386C68.3382 10.5386 67.7957 10.121 67.7957 9.47232C67.7957 8.89639 68.2325 8.49265 69.5585 8.49265H71.2011C71.2011 9.71723 70.3873 10.5386 69.1816 10.5386ZM79.6812 11.7926H81.9568L78.3552 7.90175L81.6554 4.29966H79.5906L76.9688 7.21031H76.5471V4.30019H74.8139V11.7921H76.5471V8.80976H76.9688L79.6812 11.7926ZM84.8963 11.7926H86.6289V5.81247H89.3414V4.29912H82.1839V5.81247H84.8963V11.7926ZM97.9361 7.9595C97.9361 5.79857 96.2483 4.15581 93.8675 4.15581C91.4867 4.15581 89.7988 5.78413 89.7988 8.04613C89.7988 10.3081 91.4867 11.9365 93.8675 11.9365C95.4949 11.9365 97.0318 11.2017 97.6196 9.77499L95.9921 9.51563C95.6157 10.0488 94.8921 10.4236 93.9732 10.4236C92.6472 10.4236 91.773 9.64558 91.6069 8.49318H97.9059C97.921 8.33436 97.9361 8.16164 97.9361 7.9595ZM93.8675 5.59643C94.9525 5.59643 95.7662 6.25952 96.0525 7.19587H91.7126C91.999 6.23065 92.8127 5.59697 93.8675 5.59697V5.59643Z" fill="black"/>
</g>
<defs>
<clipPath id="clip0_4051_31476">
<rect width="98" height="16" fill="white"/>
</clipPath>
</defs>
</svg>
