<svg width="14" height="22" viewBox="0 0 14 22" fill="none" xmlns="http://www.w3.org/2000/svg">
<path fill-rule="evenodd" clip-rule="evenodd" d="M7.01125 2.76145C5.27966 2.76145 3.8371 4.12261 3.83814 5.84576C3.83831 7.55692 5.28192 8.91745 7.01125 8.91745C8.74068 8.91745 10.1844 7.55675 10.1844 5.84545C10.1844 4.12368 8.74228 2.76145 7.01125 2.76145ZM4.86642 5.84514C4.86575 4.72508 5.81223 3.78974 7.01125 3.78974C8.20912 3.78974 9.15608 4.72572 9.15608 5.84545C9.15608 6.95164 8.21071 7.88916 7.01125 7.88916C5.81179 7.88916 4.86642 6.95133 4.86642 5.84514Z" fill="#000106"/>
<path fill-rule="evenodd" clip-rule="evenodd" d="M7.01125 0.123047C3.76592 0.123047 1.08234 2.6629 1.08234 5.84545C1.08234 9.01675 3.76671 11.5559 7.01125 11.5559C10.255 11.5559 12.9393 9.0167 12.9393 5.84545C12.9393 2.66295 10.2558 0.123047 7.01125 0.123047ZM2.11062 5.84545C2.11062 3.2696 4.29424 1.15133 7.01125 1.15133C9.72735 1.15133 11.911 3.26955 11.911 5.84545C11.911 8.40859 9.72813 10.5276 7.01125 10.5276C4.29346 10.5276 2.11062 8.40854 2.11062 5.84545Z" fill="#000106"/>
<path fill-rule="evenodd" clip-rule="evenodd" d="M9.70914 11.5534C9.07663 11.8217 8.15868 12.0915 7.02337 12.0932C5.88805 12.0915 4.9701 11.8217 4.33759 11.5534C4.02046 11.419 3.77627 11.2854 3.61412 11.1875C3.53312 11.1386 3.47281 11.0987 3.43435 11.0723C3.41513 11.0591 3.40138 11.0493 3.39327 11.0434L3.3857 11.0379L3.38459 11.037L3.38314 11.0359C2.73156 10.544 2.08753 10.3902 1.51504 10.522C0.956781 10.6506 0.555589 11.0313 0.341242 11.433L0.335058 11.4446C0.182008 11.7499 0.0892967 12.0587 0.0960484 12.3733C0.102989 12.6967 0.214173 12.9795 0.391147 13.2286C0.623481 13.5556 0.989207 13.8465 1.41919 14.1355L1.40821 14.1465L1.9653 14.4873C2.84346 15.0244 3.93261 15.3245 4.86849 15.4921L3.34131 16.9567C2.44169 17.8195 1.6149 18.6124 1.57765 18.6478L1.57091 18.6542C1.17181 19.0478 1.01298 19.5282 1.06171 20.0002C1.10868 20.4552 1.34293 20.8605 1.65243 21.156C2.26137 21.7374 3.34561 22.0264 4.19192 21.2293L4.19886 21.2228C4.91588 20.522 5.93529 19.5402 7.02337 18.4933C8.11144 19.5402 9.13085 20.522 9.84787 21.2228L9.85482 21.2293C10.7011 22.0264 11.7854 21.7374 12.3943 21.156C12.7038 20.8605 12.9381 20.4552 12.985 20.0002C13.0337 19.5282 12.8749 19.0478 12.4758 18.6542L12.4691 18.6478C12.4319 18.6125 11.6099 17.8241 10.7133 16.9642L9.17824 15.4921C10.1141 15.3245 11.2033 15.0244 12.0814 14.4873L12.6385 14.1465L12.6275 14.1355C13.0575 13.8465 13.4233 13.5556 13.6556 13.2286C13.8326 12.9795 13.9437 12.6967 13.9507 12.3733C13.9574 12.0587 13.8647 11.7499 13.7117 11.4446L13.7055 11.433C13.4911 11.0313 13.09 10.6506 12.5317 10.522C11.9592 10.3902 11.3152 10.544 10.6636 11.0359L10.6621 11.037L10.661 11.0379L10.6535 11.0434C10.6453 11.0493 10.6316 11.0591 10.6124 11.0723C10.5739 11.0987 10.5136 11.1386 10.4326 11.1875C10.2705 11.2854 10.0263 11.419 9.70914 11.5534ZM7.03395 13.1215L7.02337 13.1215L7.01278 13.1215C5.71795 13.1182 4.66682 12.81 3.93616 12.5001C3.56873 12.3443 3.28115 12.1876 3.08268 12.0678C2.98338 12.0079 2.90616 11.957 2.85217 11.9199C2.82517 11.9014 2.80395 11.8863 2.78867 11.8752L2.7702 11.8616L2.76432 11.8572L2.76295 11.8561C2.29231 11.501 1.95366 11.4762 1.74582 11.5241C1.52582 11.5747 1.35031 11.7296 1.25134 11.9117C1.14821 12.1192 1.12209 12.2574 1.1241 12.3512C1.12594 12.437 1.15186 12.5239 1.22939 12.633C1.41295 12.8914 1.80437 13.1743 2.50624 13.6114L2.56353 13.6471C3.59916 14.2564 5.03789 14.5167 6.0417 14.6177C6.2221 14.7066 6.38793 15.0843 6.41756 15.4204C6.39694 15.4469 6.37106 15.4758 6.36742 15.4795L6.36272 15.4842L6.36076 15.4861L6.35668 15.4901L4.07571 17.6771C3.1891 18.5274 2.36425 19.3185 2.29022 19.3892C2.10936 19.5689 2.06886 19.7425 2.08456 19.8946C2.10211 20.0646 2.19674 20.254 2.3625 20.4123C2.70303 20.7374 3.15306 20.7922 3.48385 20.4836C4.26918 19.7161 5.41244 18.6162 6.60724 17.4668L7.02175 17.068L7.02175 17.0649L7.02337 17.0664L7.02498 17.0649L7.02498 17.068L7.43949 17.4668C8.63429 18.6162 9.77755 19.7161 10.5629 20.4836C10.8937 20.7922 11.3437 20.7374 11.6842 20.4123C11.85 20.254 11.9446 20.0646 11.9622 19.8946C11.9779 19.7425 11.9374 19.5689 11.7565 19.3892C11.6825 19.3185 10.8576 18.5274 9.97103 17.6771L7.69005 15.4901L7.68597 15.4861L7.68401 15.4842L7.67932 15.4795C7.67568 15.4758 7.64979 15.4469 7.62917 15.4204C7.6588 15.0843 7.82464 14.7066 8.00503 14.6177C9.00884 14.5167 10.4476 14.2564 11.4832 13.6471L11.5405 13.6114C12.2424 13.1743 12.6338 12.8914 12.8173 12.633C12.8949 12.5239 12.9208 12.437 12.9226 12.3512C12.9246 12.2574 12.8985 12.1192 12.7954 11.9117C12.6964 11.7296 12.5209 11.5747 12.3009 11.5241C12.0931 11.4762 11.7544 11.501 11.2838 11.8561L11.2824 11.8572L11.2765 11.8616L11.2581 11.8752C11.2428 11.8863 11.2216 11.9014 11.1946 11.9199C11.1406 11.957 11.0634 12.0079 10.9641 12.0678C10.7656 12.1876 10.478 12.3443 10.1106 12.5001C9.37992 12.81 8.32878 13.1182 7.03395 13.1215Z" fill="#000106"/>
</svg>
