<svg width="14" height="12" viewBox="0 0 14 12" fill="none" xmlns="http://www.w3.org/2000/svg">
<path d="M13.0078 0.968785C12.3463 0.322837 11.4323 0 10.2656 0C9.94266 0 9.61312 0.0559862 9.27726 0.167904C8.94126 0.279903 8.62868 0.431006 8.33988 0.621102C8.0507 0.811143 7.80218 0.989609 7.5937 1.15623C7.38546 1.3229 7.18748 1.50002 7.00001 1.68747C6.81246 1.50002 6.61454 1.3229 6.40627 1.15623C6.19787 0.989609 5.94924 0.811252 5.66012 0.621102C5.37105 0.430924 5.05853 0.279931 4.72261 0.167904C4.38672 0.0560136 4.05723 0 3.73434 0C2.56763 0 1.65362 0.322919 0.992184 0.968785C0.330746 1.6146 0 2.51037 0 3.6562C0 4.00517 0.0612949 4.36468 0.183638 4.73428C0.305982 5.10407 0.4454 5.41922 0.60162 5.67958C0.757813 5.93992 0.934939 6.1938 1.13286 6.44123C1.33078 6.68862 1.47543 6.85912 1.56647 6.95287C1.65759 7.04662 1.72923 7.1144 1.7813 7.1561L6.65624 11.8592C6.75002 11.953 6.86459 12 6.99999 12C7.13538 12 7.25004 11.953 7.34376 11.8592L12.211 7.17156C13.4037 5.97905 14 4.80718 14 3.65609C14 2.51018 13.6693 1.61449 13.0078 0.968785ZM11.5312 6.43731L7.00001 10.8045L2.46105 6.42943C1.48706 5.45569 1.00015 4.5311 1.00015 3.65609C1.00015 3.23428 1.05613 2.86183 1.16805 2.539C1.28005 2.2161 1.42327 1.95952 1.59774 1.76942C1.77224 1.57927 1.98445 1.42445 2.23445 1.30457C2.48458 1.18479 2.72935 1.10404 2.96889 1.0624C3.20843 1.0208 3.4636 0.999979 3.73447 0.999979C4.00527 0.999979 4.29699 1.06631 4.60949 1.19916C4.92193 1.33196 5.20968 1.49863 5.47268 1.69912C5.73572 1.89975 5.96098 2.08722 6.14856 2.26164C6.33603 2.43622 6.49222 2.59627 6.61725 2.74212C6.71094 2.85674 6.83865 2.91404 7.00004 2.91404C7.16149 2.91404 7.28906 2.85674 7.38286 2.74212C7.50786 2.59627 7.66416 2.43614 7.85163 2.26164C8.03913 2.08722 8.26441 1.89984 8.52735 1.69912C8.7904 1.49863 9.07816 1.33196 9.39076 1.19916C9.70315 1.06634 9.99495 0.999979 10.2658 0.999979C10.5366 0.999979 10.7917 1.0208 11.0313 1.0624C11.271 1.10402 11.5157 1.18479 11.7658 1.30457C12.0158 1.42442 12.228 1.57935 12.4024 1.76942C12.5769 1.95952 12.7202 2.2161 12.8322 2.539C12.944 2.86183 13 3.23428 13 3.65609C12.9999 4.5311 12.5105 5.45827 11.5312 6.43731Z" fill="#000106"/>
</svg>
