<svg width="29" height="23" viewBox="0 0 29 23" fill="none" xmlns="http://www.w3.org/2000/svg">
<path d="M20.6784 19.6977L23.5998 4.80759C23.6647 4.56246 23.6747 4.30623 23.6293 4.05684C23.5838 3.80745 23.4839 3.57092 23.3366 3.36381C23.1207 3.12611 22.8317 2.96573 22.5144 2.90754C22.1972 2.84935 21.8694 2.89662 21.582 3.042L3.76378 10.0696C2.86014 10.4175 2.74609 10.948 2.74609 11.2263C2.74609 11.5047 2.90401 12.0178 3.82519 12.3222L7.57131 13.4268V13.4703L9.58913 19.4194C9.67485 19.7603 9.86847 20.065 10.1416 20.2888C10.4148 20.5126 10.753 20.6438 11.1069 20.6631C11.3373 20.6576 11.5644 20.6072 11.7751 20.5146C11.9859 20.4221 12.1762 20.2893 12.3351 20.1239L14.6688 17.906L18.0201 20.6892L18.0727 20.7327C18.3857 21.0022 18.7816 21.1585 19.1957 21.1763C19.5816 21.1497 19.9446 20.9851 20.2172 20.7132C20.4899 20.4412 20.6538 20.0804 20.6784 19.6977ZM10.4489 18.5496L10.3612 18.2887L8.65041 13.2442H8.71182L16.2479 9.24331L11.5017 14.4618C11.4359 14.5327 11.3904 14.6198 11.3701 14.714L10.4489 18.5496ZM13.7564 17.2102L11.607 19.2628L11.5104 19.3411L11.335 19.4803L12.2123 15.8099L13.8178 17.1493L13.7564 17.2102ZM12.686 14.7749L12.7387 14.714L19.1606 7.66907C19.2439 7.56691 19.2894 7.4395 19.2894 7.30812C19.2894 7.17674 19.2439 7.04933 19.1606 6.94717C19.091 6.85383 18.9914 6.78666 18.8783 6.75664C18.7652 6.72663 18.6451 6.73554 18.5377 6.78192L7.93101 12.3744L3.93924 11.1916L4.14979 11.1046L21.968 4.0857C22.0767 4.04032 22.1924 4.01384 22.3102 4.00742C22.3455 4.00391 22.3813 4.00835 22.4147 4.02039C22.4481 4.03244 22.4783 4.05179 22.5032 4.077C22.5838 4.23298 22.5996 4.41409 22.547 4.58145L19.6256 19.4716C19.5554 19.8195 19.3975 20.0108 19.1957 20.0108C19.0258 19.9948 18.8658 19.9246 18.7395 19.8108L12.686 14.7749Z" fill="#000106"/>
</svg>
