<svg width="20" height="20" viewBox="0 0 20 20" fill="none" xmlns="http://www.w3.org/2000/svg">
<path fill-rule="evenodd" clip-rule="evenodd" d="M9.58 0C4.2976 0 0 4.2976 0 9.58C0 14.8624 4.2976 19.16 9.58 19.16C14.8624 19.16 19.16 14.8624 19.16 9.58C19.16 4.2976 14.8624 0 9.58 0ZM9.58 18.1739C4.84114 18.1739 0.986087 14.3189 0.986087 9.58C0.986087 4.84114 4.84114 0.986087 9.58 0.986087C14.3189 0.986087 18.1739 4.84114 18.1739 9.58C18.1739 14.3189 14.3189 18.1739 9.58 18.1739ZM9.80099 0.0825327C14.9367 0.20136 19.0781 4.41623 19.0781 9.57996C19.0781 14.8182 14.8163 19.08 9.57812 19.08C9.50426 19.08 9.4306 19.0791 9.35714 19.0774C9.43122 19.0791 9.50551 19.08 9.58 19.08C14.8182 19.08 19.08 14.8182 19.08 9.58C19.08 4.41564 14.9376 0.200378 9.80099 0.0825327ZM9.37642 18.2516C4.68704 18.143 0.906087 14.295 0.906087 9.58C0.906087 4.79696 4.79696 0.906087 9.58 0.906087C9.64741 0.906087 9.71465 0.90686 9.7817 0.908397C9.71403 0.906831 9.64617 0.906043 9.57812 0.906043C4.79508 0.906043 0.904212 4.79691 0.904212 9.57996C0.904212 14.2956 4.68618 18.144 9.37642 18.2516ZM6.23147 11.7297L6.23138 11.7296C6.04963 11.5271 5.73852 11.5092 5.53531 11.6912C5.33204 11.8728 5.3155 12.1844 5.49676 12.3873L5.49681 12.3874C6.5303 13.542 8.01918 14.2037 9.58153 14.2037C11.1443 14.2037 12.6332 13.5416 13.6663 12.3874L13.6663 12.3873C13.8477 12.1843 13.8305 11.8727 13.6278 11.6912C13.4247 11.5093 13.1127 11.527 12.9316 11.7297C12.0853 12.6753 10.8647 13.2176 9.58153 13.2176C8.29879 13.2176 7.07772 12.6753 6.23147 11.7297ZM13.6278 11.6912L13.5744 11.7508L13.6278 11.6912L13.6278 11.6912ZM13.2975 11.6454C13.3956 11.6454 13.4941 11.6801 13.573 11.7508C13.7426 11.9026 13.7572 12.1631 13.6059 12.3333L13.6066 12.334C13.7586 12.1638 13.7442 11.9028 13.5744 11.7508C13.4951 11.6798 13.396 11.6451 13.2975 11.6454ZM12.8846 6.68889C11.7458 6.68889 10.8193 7.61535 10.8193 8.75411C10.8193 8.97942 11 9.16279 11.2243 9.16707C11 9.16283 10.8193 8.97945 10.8193 8.7541C10.8193 7.61534 11.7457 6.68889 12.8845 6.68889L12.8846 6.68889ZM14.5287 9.16707C14.3044 9.16279 14.1237 8.97942 14.1237 8.75411C14.1237 8.12015 13.6449 7.59575 13.0301 7.52348C13.6449 7.59579 14.1236 8.12018 14.1236 8.7541C14.1236 8.97945 14.3044 9.16283 14.5287 9.16707ZM12.8845 6.60889C11.7015 6.60889 10.7393 7.57116 10.7393 8.7541C10.7393 9.02629 10.9601 9.24715 11.2323 9.24715C11.5045 9.24715 11.7253 9.02629 11.7253 8.7541C11.7253 8.11511 12.2455 7.59497 12.8845 7.59497C13.5235 7.59497 14.0436 8.11511 14.0436 8.7541C14.0436 9.02629 14.2645 9.24715 14.5366 9.24715C14.8088 9.24715 15.0297 9.02629 15.0297 8.7541C15.0297 7.57116 14.0674 6.60889 12.8845 6.60889ZM7.5148 8.75411C7.5148 8.98168 7.69914 9.16645 7.92655 9.16715C7.92646 9.16715 7.92638 9.16715 7.9263 9.16715C7.6983 9.16715 7.51325 8.9821 7.51325 8.7541C7.51325 8.07252 6.95988 7.51756 6.2789 7.51498C6.96059 7.51673 7.5148 8.07201 7.5148 8.75411ZM4.21045 8.75411C4.21045 8.98168 4.39479 9.16645 4.6222 9.16715C4.62212 9.16715 4.62203 9.16715 4.62195 9.16715C4.39395 9.16715 4.20891 8.9821 4.20891 8.7541C4.20891 7.61534 5.13536 6.68889 6.27412 6.68889C5.13607 6.68972 4.21045 7.61586 4.21045 8.75411ZM6.27823 6.68889C6.27738 6.68889 6.27652 6.68889 6.27567 6.68889C6.27515 6.68889 6.27464 6.68889 6.27412 6.68889C6.27549 6.68889 6.27686 6.68889 6.27823 6.68889ZM7.43325 8.7541C7.43325 9.02629 7.65411 9.24715 7.9263 9.24715C8.19848 9.24715 8.41934 9.02629 8.41934 8.7541C8.41934 7.57116 7.45707 6.60889 6.27412 6.60889C5.09118 6.60889 4.12891 7.57116 4.12891 8.7541C4.12891 9.02629 4.34977 9.24715 4.62195 9.24715C4.89413 9.24715 5.11499 9.02629 5.11499 8.7541C5.11499 8.11511 5.63513 7.59497 6.27412 7.59497C6.91311 7.59497 7.43325 8.11511 7.43325 8.7541Z" fill="#A1A1A1"/>
</svg>
