<svg width="18" height="18" viewBox="0 0 18 18" fill="none" xmlns="http://www.w3.org/2000/svg">
<g clip-path="url(#clip0)">
<path d="M17.6895 17L9.68949 8.91996L9.73949 8.86996L17.7395 0.869957C17.8311 0.776493 17.8824 0.650834 17.8824 0.519957C17.8824 0.389081 17.8311 0.263422 17.7395 0.169957C17.691 0.114685 17.6309 0.0707925 17.5635 0.0414079C17.4961 0.0120233 17.423 -0.00212976 17.3495 -4.27145e-05C17.2847 -0.00153424 17.2203 0.0101007 17.1602 0.0341612C17.1 0.0582218 17.0454 0.0942098 16.9995 0.139957L8.91949 8.28996L8.85949 8.22996L0.829491 0.139957C0.784801 0.0954213 0.731768 0.0601329 0.673428 0.0361104C0.615088 0.0120878 0.552584 -0.000197432 0.489491 -4.27145e-05C0.359027 -0.000826453 0.233424 0.0494147 0.139491 0.139957C0.0478776 0.233422 -0.0034375 0.359081 -0.0034375 0.489957C-0.0034375 0.620834 0.0478776 0.746493 0.139491 0.839957L8.13949 8.91996L8.11949 8.99996L0.119491 17C0.0278776 17.0934 -0.0234375 17.2191 -0.0234375 17.35C-0.0234375 17.4808 0.0278776 17.6065 0.119491 17.7C0.164182 17.7445 0.217214 17.7798 0.275554 17.8038C0.333895 17.8278 0.396399 17.8401 0.459491 17.84C0.589562 17.8387 0.714441 17.7888 0.809491 17.7L8.91949 9.55996H8.97949L16.9795 17.65C17.0745 17.7388 17.1994 17.7887 17.3295 17.79C17.3926 17.7901 17.4551 17.7778 17.5134 17.7538C17.5718 17.7298 17.6248 17.6945 17.6695 17.65C17.7517 17.5628 17.7992 17.4485 17.8029 17.3288C17.8065 17.209 17.7662 17.092 17.6895 17Z" fill="#000106"/>
</g>
<defs>
<clipPath id="clip0">
<rect width="17.84" height="17.84" fill="white"/>
</clipPath>
</defs>
</svg>
