<svg width="10" height="11" viewBox="0 0 10 11" fill="none" xmlns="http://www.w3.org/2000/svg">
<path d="M9.04058 4.31725C8.8431 4.0551 8.55304 3.88379 8.22382 3.83494C8.15816 3.82519 8.09101 3.82071 8.02486 3.82117H5.95652V2.49974C5.95652 1.59415 5.203 0.857422 4.2768 0.857422C4.1264 0.857422 3.9901 0.944021 3.92902 1.07841L2.19686 4.88897C2.17523 4.93656 2.16406 4.98803 2.16406 5.0401V9.69749C2.16406 9.90302 2.33447 10.0696 2.54466 10.0696H7.42726C7.43121 10.0696 7.43515 10.0697 7.43909 10.0697C7.73478 10.0697 8.02101 9.96691 8.24651 9.77948C8.47562 9.5891 8.62663 9.32416 8.67161 9.0341L9.26928 5.22298C9.31926 4.90109 9.23803 4.57942 9.04058 4.31725Z" fill="#000106"/>
<path d="M2.54581 8.86198H1.90952C1.64183 8.86198 1.42404 8.64904 1.42404 8.38732V6.61873C1.42404 6.35699 1.64183 6.14407 1.90952 6.14407H2.54581C2.756 6.14407 2.9264 5.24512 2.9264 5.0396C2.9264 4.83409 2.756 4.66748 2.54581 4.66748H1.24669C0.559267 4.66748 0 5.2143 0 5.88641V8.85018C0 9.5223 0.559267 10.0691 1.24669 10.0691H2.54581C2.75602 10.0691 2.9264 9.90252 2.9264 9.69699C2.9264 9.49142 2.756 8.86198 2.54581 8.86198Z" fill="#000106"/>
</svg>
