<svg width="12" height="13" viewBox="0 0 12 13" fill="none" xmlns="http://www.w3.org/2000/svg">
<path d="M0.313788 7.80773C0.569012 8.14654 0.943892 8.36795 1.36938 8.43108C1.45424 8.44368 1.54103 8.44947 1.62653 8.44887H4.2997V10.1567C4.2997 11.3271 5.27358 12.2793 6.47061 12.2793C6.66499 12.2793 6.84116 12.1674 6.9201 11.9937L9.15879 7.06883C9.18674 7.00732 9.20117 6.94079 9.20117 6.87349V0.854174C9.20117 0.588541 8.98093 0.373231 8.70928 0.373231H2.39888C2.39377 0.373184 2.38868 0.373161 2.38359 0.373161C2.00143 0.373161 1.6315 0.505965 1.34006 0.748204C1.04395 0.994257 0.848781 1.33667 0.790653 1.71155L0.0182056 6.63714C-0.0463915 7.05315 0.058589 7.46889 0.313788 7.80773ZM0.990746 6.7822L1.76319 1.85655C1.80948 1.55812 2.0755 1.33507 2.38359 1.33507C2.3859 1.33507 2.38832 1.33507 2.39063 1.33512C2.39249 1.33512 2.39432 1.33514 2.39617 1.33514H8.21736V6.77141L6.16825 11.2793C5.65963 11.1482 5.28349 10.6946 5.28349 10.1567V7.96788C5.28349 7.70227 5.06328 7.48694 4.7916 7.48694H1.62389C1.62204 7.48694 1.62018 7.48694 1.61833 7.48696C1.58458 7.48726 1.55047 7.48501 1.51703 7.48005C1.35133 7.45547 1.20535 7.36925 1.10595 7.2373C1.00656 7.10536 0.965701 6.94349 0.990746 6.7822Z" fill="#000106"/>
<path d="M8.70974 1.33522H10.3887C10.7347 1.33522 11.0162 1.61043 11.0162 1.94869V5.77914C11.0162 6.11742 10.7347 6.39261 10.3887 6.39261H8.70974C8.43808 6.39261 8.21784 6.60794 8.21784 6.87355C8.21784 7.13916 8.43808 7.35449 8.70974 7.35449H10.3887C11.2772 7.35449 12 6.64777 12 5.77911V1.94867C12 1.08001 11.2772 0.373288 10.3887 0.373288H8.70974C8.43805 0.373288 8.21784 0.588599 8.21784 0.854231C8.21784 1.11991 8.43808 1.33522 8.70974 1.33522Z" fill="#000106"/>
</svg>
