<svg width="29" height="23" viewBox="0 0 29 23" fill="none" xmlns="http://www.w3.org/2000/svg">
<path d="M20.1793 3.75174C19.8193 3.54766 19.146 3.2302 18.7745 3.07148C17.6743 2.6138 16.4871 2.38965 15.2915 2.41388C14.0568 2.4079 12.8331 2.6406 11.6909 3.09858C10.5487 3.55655 9.51065 4.23075 8.63649 5.08232C7.76233 5.93389 7.06939 6.94598 6.59761 8.06028C6.12582 9.17457 5.88451 10.369 5.88759 11.5748C5.87063 12.7939 6.10207 14.004 6.56847 15.1349C7.03486 16.2658 7.72689 17.2948 8.60428 18.1621C10.423 19.9118 12.8778 20.8862 15.4308 20.8718C16.6586 20.8876 17.8768 20.6584 19.0107 20.1983C20.1446 19.7382 21.1704 19.0569 22.0252 18.1961C23.4109 16.788 24.2346 14.9419 24.3472 12.992C24.3472 12.6632 24.3472 11.5862 24.3472 11.0193C24.3472 10.8945 24.2891 10.6111 24.2427 10.3843C24.1932 10.1202 24.0494 9.88181 23.8368 9.71156C23.6242 9.54131 23.3566 9.45027 23.0817 9.45465H15.5121C15.2042 9.45465 14.9089 9.5741 14.6912 9.78672C14.4734 9.99935 14.3511 10.2877 14.3511 10.5884V13.1281C14.3511 13.4288 14.4734 13.7172 14.6912 13.9298C14.9089 14.1424 15.2042 14.2619 15.5121 14.2619H18.5655L18.4262 14.4206L18.2288 14.636C17.8666 15.0049 17.4298 15.2963 16.9461 15.4915C16.4624 15.6866 15.9425 15.7814 15.4192 15.7698C14.3104 15.7911 13.238 15.3836 12.4355 14.636C11.6657 13.8386 11.2369 12.7841 11.2369 11.6882C11.2369 10.5923 11.6657 9.53775 12.4355 8.74037C13.1909 8.01417 14.2083 7.60698 15.2683 7.60659C15.9705 7.57597 16.6671 7.74113 17.2768 8.08278L18.0198 8.58164C18.2389 8.72283 18.5005 8.78737 18.7619 8.76472C19.0234 8.74207 19.2693 8.63357 19.4594 8.45692L21.6421 6.33676C21.7578 6.22061 21.8468 6.08157 21.9028 5.92902C21.9589 5.77646 21.9809 5.61394 21.9672 5.45241C21.9445 5.29807 21.8896 5.14994 21.8057 5.01728C21.7218 4.88463 21.6107 4.7703 21.4795 4.68144C20.8526 4.18258 20.3882 3.87646 20.1793 3.75174ZM20.9803 5.65649L18.7861 7.76532C18.7709 7.7804 18.7529 7.79238 18.7329 7.80057C18.713 7.80875 18.6916 7.81296 18.67 7.81296C18.6484 7.81296 18.6269 7.80875 18.607 7.80057C18.5871 7.79238 18.569 7.7804 18.5539 7.76532L17.7992 7.26646C17.0547 6.81107 16.1932 6.57126 15.3147 6.57485C14.0096 6.58889 12.761 7.09696 11.8318 7.99207C10.8843 8.96213 10.3557 10.2512 10.3557 11.5918C10.3557 12.9324 10.8843 14.2215 11.8318 15.1916C12.3118 15.6598 12.8822 16.0302 13.51 16.2813C14.1378 16.5324 14.8105 16.6591 15.4889 16.6541C16.1385 16.6607 16.7827 16.5374 17.3817 16.2917C17.9807 16.046 18.5218 15.6832 18.9718 15.2256C19.3178 14.8503 19.6035 14.426 19.8193 13.9671C19.8527 13.8957 19.867 13.8172 19.8608 13.7389C19.8547 13.6607 19.8284 13.5852 19.7844 13.5195C19.7403 13.4539 19.68 13.4002 19.609 13.3635C19.5379 13.3267 19.4585 13.3082 19.3782 13.3095H15.5121C15.4877 13.3095 15.4636 13.3048 15.441 13.2957C15.4185 13.2866 15.398 13.2732 15.3808 13.2564C15.3635 13.2395 15.3498 13.2195 15.3405 13.1975C15.3312 13.1755 15.3264 13.1519 15.3264 13.1281V10.5544C15.323 10.5288 15.3254 10.5027 15.3332 10.478C15.3411 10.4533 15.3542 10.4305 15.3718 10.4112C15.3894 10.3919 15.411 10.3765 15.4352 10.366C15.4594 10.3555 15.4856 10.3501 15.5121 10.3503H23.1281C23.1719 10.3496 23.2146 10.3639 23.2486 10.3909C23.2826 10.4179 23.3057 10.4557 23.3139 10.4977C23.3139 10.6678 23.3952 10.9626 23.3952 11.0533C23.3952 11.4841 23.3952 12.4025 23.3952 12.9013C23.3026 14.6323 22.5777 16.2736 21.3518 17.5271C20.5828 18.2935 19.6626 18.8996 18.6469 19.3089C17.6312 19.7181 16.5411 19.9219 15.4425 19.9081C13.142 19.9224 10.9294 19.0459 9.28926 17.4705C8.50218 16.697 7.88031 15.7785 7.45978 14.7684C7.03925 13.7582 6.82844 12.6765 6.83959 11.5862C6.83499 10.5034 7.04978 9.43049 7.47159 8.42917C7.8934 7.42785 8.5139 6.51792 9.29734 5.75178C10.0808 4.98564 11.0117 4.37843 12.0365 3.96512C13.0612 3.55182 14.1596 3.34058 15.2683 3.34358C16.3399 3.31371 17.4053 3.51098 18.3913 3.92181C18.728 4.0692 19.3898 4.37532 19.7032 4.55673C20.0167 4.73813 20.8642 5.31636 20.9339 5.37305C20.9836 5.40825 21.017 5.46125 21.0268 5.52044C21.0286 5.56978 21.0122 5.61812 20.9803 5.65649Z" fill="#000106"/>
</svg>
