<svg width="145" height="145" viewBox="0 0 145 145" fill="none" xmlns="http://www.w3.org/2000/svg">
<path d="M145 72.5C145 112.541 112.541 145 72.5 145C32.4594 145 0 112.541 0 72.5C0 32.4594 32.4594 0 72.5 0C112.541 0 145 32.4594 145 72.5Z" fill="#ECF0F2"/>
<mask id="mask0" mask-type="alpha" maskUnits="userSpaceOnUse" x="0" y="0" width="145" height="145">
<path d="M145 72.5C145 112.541 112.541 145 72.5 145C32.4594 145 0 112.541 0 72.5C0 32.4594 32.4594 0 72.5 0C112.541 0 145 32.4594 145 72.5Z" fill="#ECF0F2"/>
</mask>
<g mask="url(#mask0)">
<path fill-rule="evenodd" clip-rule="evenodd" d="M56.5081 42.479C47.8952 51.0919 47.8952 64.9082 56.5081 73.5212C65.3048 82.3178 79.6952 82.3178 88.4919 73.5212C97.1048 64.9082 97.1048 51.0919 88.4919 42.479L93.0061 37.494C104.331 48.8192 104.331 67.181 93.0061 78.5061C81.6809 89.8313 63.3191 89.8313 51.9939 78.5061C40.6687 67.181 40.6687 48.8192 51.9939 37.494C63.3191 26.1687 81.6809 26.1687 93.0061 37.494L88.4919 42.479C79.6953 33.6822 65.3047 33.6822 56.5081 42.479Z" fill="white"/>
<path fill-rule="evenodd" clip-rule="evenodd" d="M113.23 114.894C89.0609 99.1834 55.9392 99.1834 31.7701 114.894C29.7459 116.209 28.4528 118.487 28.4528 121.074V130.07C28.4528 130.07 43.5681 144.993 70.9853 145C98.4026 145.007 116.547 129.979 116.547 129.979V121.074C116.547 118.487 115.254 116.209 113.23 114.894ZM123.25 124.209C123.25 124.209 104.43 144.738 70.9853 145C37.5411 145.262 21.75 124.284 21.75 124.284V121.074C21.75 116.408 24.0934 112.103 28.0158 109.556C54.4529 92.3704 90.5471 92.3704 116.984 109.556C120.906 112.103 123.25 116.408 123.25 121.074V124.209Z" fill="white"/>
</g>
</svg>
